<svg width="20" height="20" fill="none" xmlns="http://www.w3.org/2000/svg"><path d="M17.98 8.547c-.468.148-.96.246-1.453.246a4.258 4.258 0 01-4.212-4.212c0-.443.074-.886.222-1.305a3.169 3.169 0 01-.69-3.104A11.715 11.715 0 0010 0C4.483 0 0 4.483 0 10s4.483 10 10 10 10-4.483 10-10c0-.222 0-.443-.025-.665a3.93 3.93 0 01-1.995-.788zM4.581 7.315c1.724 0 1.724 2.71 0 2.71s-1.97-2.71 0-2.71zm1.478 8.448c-1.97 0-1.97-2.955 0-2.955s1.97 2.956 0 2.956zM9.015 1.33c1.724 0 1.724 2.956 0 2.956s-1.97-2.956 0-2.956zm1.231 7.512c1.478 0 1.478 1.97 0 1.97s-1.231-1.97 0-1.97zm1.724 8.104c-1.477 0-1.477-1.97 0-1.97 1.478 0 1.232 1.97 0 1.97zm4.68-3.843c-1.231 0-1.231-1.97 0-1.97 1.232 0 1.232 1.97 0 1.97z" fill="#B4B4B4"/></svg>