<svg width="43" height="24" fill="none" xmlns="http://www.w3.org/2000/svg"><path d="M20.08 12.402l-3.59 1.815c.456.72.684 1.616.684 2.695 0 1.544-.528 2.736-1.584 3.578-1.032.842-2.545 1.264-4.537 1.264-.96 0-1.86-.117-2.7-.351V18.33L3.67 20.695v2.462h7.922c3.098 0 5.64-.456 7.633-1.369 1.993-.934 2.99-2.62 2.99-5.052 0-1.954-.713-3.398-2.135-4.335zM3.672 17.008l4.682-1.941v-2.998h2.7c1.314 0 2.415.169 3.306.504l2.931-1.216c-.366-.07-.752-.125-1.16-.164 1.585-.398 2.809-1.065 3.673-2 .888-.96 1.332-1.977 1.332-3.054 0-2.456-1.02-4.092-3.06-4.912C16.058.41 13.538 0 10.513 0H.791v1.053h.36c1.007 0 1.68.292 2.017.876.335.562.503 1.44.503 2.632v12.447zm4.682-15.36c.815-.163 1.535-.245 2.16-.245 1.584 0 2.905.362 3.961 1.088 1.08.701 1.62 1.86 1.62 3.474 0 1.59-.456 2.748-1.368 3.474-.888.701-2.112 1.052-3.674 1.052h-2.7V1.65z" fill="url(#paint0_linear_829_226)"/><path d="M40.616 2.022L37.138 3.78c.408.812.611 1.875.611 3.189 0 1.987-.455 3.403-1.367 4.245-.913.842-2.077 1.263-3.493 1.263h-2.16V7.02l-4.682 2.365V23.25h4.681v-9.368h3.42c1.08 0 2.27-.164 3.566-.491 1.297-.327 2.46-.994 3.493-2 1.056-1.007 1.584-2.421 1.584-4.246 0-2.38-.725-4.088-2.175-5.123zm-14.569 5.7l4.681-1.942V1.742a12.687 12.687 0 012.34-.246c1.321 0 2.426.422 3.314 1.264.16.147.305.311.436.494l3.475-1.443a5.02 5.02 0 00-.527-.28C37.774.573 35.542.093 33.068.093h-9.901v1.052h.36c1.007 0 1.68.293 2.017.877.335.561.503 1.44.503 2.632v3.068z" fill="url(#paint1_linear_829_226)"/><defs><linearGradient id="paint0_linear_829_226" x1="11.503" y1="1.14" x2="11.503" y2="23.859" gradientUnits="userSpaceOnUse"><stop stop-color="#C09645"/><stop offset=".5" stop-color="#FFC977"/><stop offset="1" stop-color="#C09645"/></linearGradient><linearGradient id="paint1_linear_829_226" x1="32.979" y1="1.233" x2="32.979" y2="23.951" gradientUnits="userSpaceOnUse"><stop stop-color="#C09645"/><stop offset=".5" stop-color="#FFC977"/><stop offset="1" stop-color="#C09645"/></linearGradient></defs></svg>