<svg width="90" height="64" viewBox="0 0 90 64" fill="none" xmlns="http://www.w3.org/2000/svg">
<path fill-rule="evenodd" clip-rule="evenodd" d="M62.3684 0L17.3684 32.3951L62.3684 64C62.3684 64 37.44 48.8951 20.5263 41.0864C12.6228 37.4375 0 32.3951 0 32.3951C0 32.3951 12.5934 26.7915 20.5263 22.9136C37.2631 14.732 62.3684 0 62.3684 0ZM56.053 15.0117L29.2109 31.6043L56.053 50.5673C54.4741 48.987 51.9647 46.113 52.1057 42.666C52.3204 37.4158 55.2636 34.7648 62.3688 33.9747C68.053 33.3426 83.1583 32.3944 90.0004 32.3944L62.3688 30.0241C62.0726 29.9702 61.755 29.9174 61.4219 29.862C58.4995 29.3765 54.3756 28.6913 52.8951 25.2833C51.5264 22.1327 53.6329 18.8457 55.164 16.4566C55.5033 15.9271 55.8143 15.4417 56.053 15.0117Z" fill="url(#paint0_linear_144_451)"/>
<defs>
<linearGradient id="paint0_linear_144_451" x1="45.0002" y1="0" x2="45.0002" y2="64" gradientUnits="userSpaceOnUse">
<stop stop-color="#B8B8B8"/>
<stop offset="1" stop-color="#3F3F3F"/>
</linearGradient>
</defs>
</svg>
