<svg width="1920" height="76" viewBox="0 0 1920 76" fill="none" xmlns="http://www.w3.org/2000/svg">
<path d="M-1106.85 21.2226C-1104.01 21.4815 -1101.17 21.6432 -1098.33 21.8535C-1096.35 22.7432 -1095.44 23.7784 -1098.23 24.5872C-1101.44 25.5093 -1105.86 24.1828 -1108.38 26.5283C-1106.9 27.6445 -1104.81 27.5151 -1102.78 27.5636C-1100.34 27.6121 -1097.9 27.7739 -1095.49 27.8871C-1086.71 26.5122 -1077.82 27.2401 -1068.95 27.3048C-1066.28 27.321 -1062.58 27.3695 -1064.03 24.4417C-1064.21 24.0858 -1063.79 23.4064 -1063.28 23.1637C-1059.37 21.2226 -1055.86 21.8212 -1053.88 24.7328C-1052.32 27.0136 -1048.57 28.0003 -1046.54 26.3181C-1045.9 25.7843 -1045.23 25.3313 -1044.53 24.9269C-1044.72 25.6063 -1045.04 26.4151 -1044.58 26.9327C-1043.94 27.6445 -1042.07 27.5959 -1041.48 27.0136C-1038.77 24.2637 -1033.9 25.6548 -1030.28 24.7166C-1033.76 23.1314 -1037.83 23.8755 -1041.66 23.6652C-1037.83 22.3711 -1033.52 22.5005 -1028.73 23.4549C-1024.36 24.2152 -1019.46 22.8726 -1015.39 24.7166C-1012.12 26.4636 -1008.62 27.3857 -1003.93 27.3533C-980.871 27.2239 -957.813 27.3857 -934.755 27.418C-931.782 27.418 -928.783 27.1592 -925.81 27.1268C-925.194 27.1268 -924.069 27.6283 -924.016 27.9518C-923.909 28.6797 -924.283 29.4885 -925.917 29.5694C-931.46 29.7959 -936.978 30.1517 -942.521 30.1841C-968.579 30.3297 -994.637 30.4106 -1020.69 30.4591C-1023.64 30.4591 -1026.61 29.9414 -1029.56 29.99C-1031.86 30.0223 -1033.36 30.9929 -1033.39 32.5296C-1031.38 32.6752 -1029.35 32.7561 -1027.34 32.8208C-1034.33 32.9502 -1041.29 33.031 -1048.28 32.5296C-1048.39 33.0957 -1048.49 33.6457 -1048.6 34.2119C-1044.9 34.3089 -1041.16 34.7295 -1037.57 34.3736C-1033.84 34.0178 -1032.18 39.2588 -1027.39 35.4413C-1024.79 33.3546 -1020.35 34.8104 -1016.78 34.3575C-1014.32 34.0501 -1011.78 34.2766 -1010.14 35.7162C-1005.8 35.7001 -1001.47 35.7001 -997.127 35.6839C-997.047 36.6868 -996.994 37.6735 -996.913 38.6764C-996.565 39.1617 -996.083 39.4852 -995.547 39.6955C-999.431 40.4072 -1003.56 40.1484 -1007.55 40.1484C-1009.77 40.1484 -1011.99 40.1323 -1014.24 40.1161C-1011.94 40.0029 -1009.63 39.6955 -1007.49 38.9352C-1009.98 38.822 -1012.47 38.6117 -1014.96 38.6117C-1029.72 38.5794 -1044.48 38.5794 -1059.23 38.5794C-1061.78 38.5794 -1064.32 38.6279 -1066.41 37.5279L-1066.2 37.4632C-1063.89 35.4089 -1063.89 34.3413 -1066.25 34.2766C-1071.2 34.1148 -1076.19 34.0825 -1081.14 34.1472C-1082.85 34.1795 -1084.09 34.9721 -1084.54 36.0398C-1084.94 36.9618 -1084.75 38.0617 -1086.6 38.547C-1087.62 34.681 -1087.62 34.681 -1092.6 34.4222C-1099.73 34.5354 -1106.85 34.6001 -1113.95 34.7619C-1117.21 34.8427 -1120.69 34.2442 -1123.64 35.6192C-1126.05 37.3177 -1128.11 38.9999 -1132.77 38.725C-1136.9 38.4823 -1141.05 38.547 -1145.23 38.6117C-1145.23 38.4176 -1145.12 38.2073 -1144.82 37.997C-1144.21 37.5603 -1142.66 37.5926 -1141.53 37.4309L-1141.88 37.1883C-1141.99 37.0912 -1142.09 37.0103 -1142.2 36.9133C-1141.82 36.7191 -1141.64 36.4118 -1142.01 35.8942C-1142.31 35.4898 -1143.06 34.8913 -1143.59 34.8913C-1149.81 34.8751 -1156.15 33.306 -1162.15 35.506C-1160.25 35.9589 -1157.95 35.9265 -1156.74 37.1883C-1154.28 37.2044 -1151.81 37.2368 -1149.32 37.2368C-1149.32 37.8353 -1149.4 38.2882 -1149.56 38.6441C-1149.91 38.6441 -1150.29 38.6603 -1150.64 38.6603C-1152.78 38.6603 -1154.89 38.547 -1156.39 37.4309C-1157.52 37.6088 -1159.1 37.5603 -1159.69 37.997C-1160.76 38.7735 -1159.47 39.5985 -1158.35 39.6955C-1156.66 39.8411 -1154.95 39.9543 -1153.23 40.0352C-1153.69 40.0837 -1154.14 40.1323 -1154.71 40.1646C-1173.48 40.2455 -1192.23 40.3425 -1211 40.4234C-1210.89 41.6366 -1209.74 42.2675 -1207.84 42.3322C-1198.55 42.7042 -1189.09 41.8469 -1180.01 43.788C-1179.29 43.9498 -1178.3 43.8689 -1177.55 43.7071C-1167.99 41.5234 -1158.21 42.7204 -1148.47 42.8822C-1140.83 43.0116 -1133.15 42.591 -1125.52 42.6072C-1108.08 42.6719 -1090.62 42.7528 -1073.19 43.0277C-1061.7 43.2057 -1050.26 42.0895 -1038.77 42.9469C-1035.4 43.2057 -1032.05 43.3998 -1028.68 43.6263C-1024.12 44.063 -1019.52 44.3703 -1015.04 44.985C-1013.14 45.2438 -1012.85 46.5703 -1013.52 47.4923C-1013.89 48.0099 -1015.98 48.6246 -1016.62 48.4143C-1020.29 47.282 -1024.18 46.9747 -1028.09 46.7806C-1027.95 45.9879 -1028.46 45.163 -1029.91 44.9689C-1034.41 44.3703 -1038.99 44.0468 -1043.54 43.6101C-1044.93 44.4189 -1046.35 45.2115 -1047.74 46.0203C-1052.51 47.0555 -1057.09 46.1335 -1061.75 45.3571C-1062.55 45.2277 -1063.52 45.163 -1064.27 45.2924C-1071.93 46.6997 -1080.28 46.1982 -1087.62 48.382C-1089.68 50.1451 -1092.82 49.7569 -1095.73 49.9025C-1100.72 50.1613 -1105.97 49.1261 -1110.65 50.9216C-1106.23 52.2156 -1101.49 51.8598 -1096.83 51.8436C-1068.74 51.7951 -1040.67 51.6657 -1012.58 51.6333C-1000.66 51.6171 -988.745 51.7465 -976.854 51.9083C-974.792 51.9407 -972.756 52.3774 -970.721 52.6362C-963.705 51.9892 -956.688 52.0054 -949.672 52.62C-940.058 51.1642 -930.229 51.6495 -920.507 51.7465C-915.071 51.7951 -909.42 51.1966 -904.117 52.62C-895.333 52.0054 -886.549 52.0054 -877.792 52.62C-869.436 51.4392 -861.081 51.4392 -852.698 52.62C-844.423 52.0539 -836.174 51.876 -827.926 52.8465C-813.223 53.0406 -798.52 53.2024 -783.844 53.445C-780.122 53.5097 -776.239 52.9436 -772.73 54.1891C-767.99 53.6068 -763.25 53.5582 -758.536 54.2376C-756.875 53.8009 -755.43 53.9465 -754.68 54.9655C-754.6 55.0788 -756.394 55.7096 -757.358 56.0493C-757.625 56.1464 -758.134 56.0008 -758.509 55.9685C-766.731 56.8905 -774.979 56.7934 -783.228 56.0332C-792.548 57.6346 -802.216 57.0522 -811.696 57.6346C-816.195 57.9096 -820.802 57.5699 -825.355 57.5052L-826.131 57.861L-827.015 57.586C-832.05 58.8154 -837.085 58.9448 -842.12 57.5699C-845.949 58.3463 -849.752 58.3301 -853.582 57.5537C-862.178 57.9904 -870.775 58.0228 -879.372 57.5213C-888.343 58.3948 -897.288 58.3787 -906.26 57.5699C-911.348 58.9448 -916.437 58.8316 -921.525 57.6022L-922.302 57.9096L-922.998 57.5537C-928.97 58.0066 -934.942 57.9904 -940.914 57.586C-943.914 58.686 -946.913 58.8154 -949.966 57.6184C-952.136 58.2493 -954.305 58.2331 -956.42 57.5537C-964.16 58.0875 -971.873 57.7963 -979.613 57.5052C-980.845 58.0228 -982.13 58.136 -983.469 57.6507C-984.567 58.0228 -985.665 58.411 -986.763 58.7831C-1010.04 58.8801 -1033.31 58.9933 -1056.58 59.0904C-1059.96 59.1066 -1063.36 59.0904 -1066.73 59.1228C-1068.95 59.1389 -1070.83 59.608 -1072.22 60.6918C-1071.34 62.5844 -1068.79 62.5197 -1066.28 62.6006C-1060.14 62.7785 -1053.82 61.6947 -1047.9 63.4902C-1046.11 62.9564 -1044.29 62.9403 -1042.49 63.4902C-1039.28 62.1962 -1036.04 62.4712 -1032.85 63.5064C-1011.11 63.377 -989.334 63.1829 -967.588 63.1344C-954.814 63.1182 -942.012 63.3608 -929.238 63.4902C-923.48 62.2285 -917.722 61.9374 -911.938 63.5064C-909.875 62.9726 -907.813 62.9888 -905.778 63.5226C-898.252 62.1315 -890.754 62.1476 -883.229 63.5226C-872.811 62.8594 -862.419 62.8917 -852.001 63.5064C-846.163 62.4226 -840.298 62.3418 -834.46 63.4902C-831.567 63.5064 -828.703 63.5388 -825.81 63.5549C-821.23 62.2932 -816.678 61.1933 -812.125 63.5873C-803.957 63.1829 -795.788 62.6976 -787.62 63.5064C-781.166 62.3579 -774.739 62.2932 -768.312 63.5549L-767.187 63.3447L-766.169 63.7005C-764.508 63.652 -762.848 63.6035 -761.161 63.5549C-757.545 61.1771 -753.903 61.7432 -750.261 63.5388C-748.976 63.5226 -747.69 63.5064 -746.378 63.4902C-744.021 62.4873 -741.665 62.5197 -739.308 63.4741C-731.943 62.7623 -724.604 63.1991 -717.293 63.7491C-707.036 63.7491 -696.78 63.7652 -686.522 63.7329C-676.265 63.7005 -665.981 63.6358 -655.724 63.5711C-649.377 61.3388 -649.377 61.3388 -644.985 63.4902L-645.146 63.3932C-643.539 63.4255 -641.959 63.4579 -640.352 63.4902C-639.281 62.1476 -636.897 61.3388 -635.291 62.0991C-630.979 64.1373 -625.515 63.6358 -621.016 65.027C-611.562 65.0431 -602.136 65.0593 -592.682 65.0755C-584.969 63.3123 -577.256 63.7005 -569.543 65.0593C-565.098 64.4123 -560.652 64.8814 -556.207 65.027C-553.957 64.0402 -551.681 64.0564 -549.431 65.0431C-537.942 65.0593 -526.453 64.299 -514.937 65.0593C-502.323 64.024 -489.736 63.3608 -477.123 65.0431C-470.133 64.7358 -463.116 64.5093 -456.126 65.0431C-444.45 63.7005 -430.122 63.7005 -420.642 65.0431C-417.883 64.477 -415.151 64.477 -412.393 65.027C-410.09 63.927 -407.813 64.1373 -405.537 65.0593C-401.814 64.477 -398.092 64.477 -394.369 65.027C-391.932 64.024 -389.495 64.024 -387.058 65.027C-385.13 64.4608 -383.202 64.5579 -381.273 65.0593C-368.044 63.652 -352.698 63.652 -343.7 65.0593C-341.37 64.6387 -339.094 64.7843 -336.817 65.2858C-316.49 64.3637 -304.412 65.1564 -296.244 68.2783C-313.036 69.2165 -328.729 68.4401 -344.396 68.4562C-359.741 68.4724 -375.087 68.6018 -390.433 68.6827C-392.307 70.462 -395.334 70.2356 -398.199 70.1871C-417.696 69.9282 -437.219 69.7665 -456.715 69.3459C-462.553 69.2165 -468.606 70.1547 -474.257 68.4724C-479.532 69.2327 -484.782 69.2165 -490.058 68.4724C-494.048 69.7988 -498.413 69.2489 -502.618 69.2974C-525.649 69.54 -548.681 69.7341 -571.739 69.9282C-575.917 69.9606 -580.175 70.2841 -583.791 68.5533C-615.044 68.6018 -646.297 68.6504 -677.551 68.7151C-721.23 68.8121 -764.91 67.9224 -808.617 68.6504C-823.159 68.893 -837.728 68.3107 -852.296 68.1651C-856.126 68.1327 -859.982 68.3268 -863.839 68.4239C-865.713 69.718 -868.258 69.815 -870.855 69.8312C-878.113 69.8959 -885.371 69.9768 -892.628 70.0738C-895.172 70.1062 -897.797 70.0253 -899.806 71.2547C-887.754 72.662 -875.542 71.7238 -863.437 72.0958C-858.884 72.2414 -854.171 71.4164 -849.806 72.8399C-848.119 72.7105 -846.458 72.4679 -844.798 72.4679C-813.839 72.5326 -782.88 72.6134 -751.921 72.7105C-750.663 72.7105 -749.431 72.937 -748.172 73.0502C-736.174 73.0502 -724.177 73.0664 -712.206 73.0664C-711.349 73.0664 -710.491 73.0825 -709.634 73.0825C-701.921 72.662 -694.208 72.662 -686.522 73.0664C-684.782 72.6134 -683.068 72.6296 -681.327 73.0987C-675.409 73.1472 -669.49 73.2281 -663.571 73.2443C-634.782 73.309 -606.019 73.3414 -577.229 73.4222C-573.052 73.4384 -568.713 72.8399 -564.857 74.3928C-563.679 73.9237 -562.526 73.9075 -561.348 74.3766C-558.269 72.9531 -555.188 73.1958 -552.109 74.3928C-548.386 73.8105 -544.664 73.8105 -540.941 74.3766C-532.505 72.2252 -523.561 72.8076 -514.776 72.7914C-501.761 72.759 -488.719 72.9855 -475.703 73.1149C-474.819 73.1472 -473.936 73.1796 -473.052 73.212C-466.839 73.7296 -460.304 72.5649 -454.332 74.409C-441.718 74.1016 -429.131 74.0207 -416.544 74.6193C-415.687 74.6354 -414.83 74.6516 -413.973 74.684C-409.072 74.7001 -404.198 74.684 -399.297 74.7325C-396.833 74.7648 -394.369 74.9266 -392.361 75.9457L-391.799 75.9619C-383.925 74.4737 -375.757 74.8942 -367.749 74.8457C-350.717 74.7648 -333.684 75.1045 -316.651 75.1369C-300.074 75.1692 -283.47 75.0075 -266.892 75.0075C-263.143 75.0075 -259.179 74.4251 -255.778 75.978C-232.479 75.0884 -209.206 75.9619 -185.934 75.9619C-183.523 74.8457 -180.818 74.506 -177.765 74.5222C-168.231 74.5869 -158.697 74.5384 -149.163 74.5222C-137.139 73.7134 -125.141 74.1502 -113.143 74.684C-105.939 74.8619 -98.7349 74.9913 -91.5308 75.2178C-87.353 75.3472 -83.0144 74.6678 -78.9973 75.9619C-61.4558 75.1531 -43.8872 75.9619 -26.3457 75.978C-24.0425 75.0075 -21.7126 74.9428 -19.356 75.9457C-14.9639 75.6545 -10.5723 75.3633 -6.15332 75.9295C-4.35889 75.056 -2.45752 74.3928 -0.0471191 74.5869C4.07715 73.584 8.38892 74.0531 12.5935 74.0369C31.7686 73.9884 50.9438 73.9884 70.1189 74.0369C74.7788 74.0531 79.4387 74.2796 84.0986 74.4251C88.0623 73.0502 92.0256 73.1149 96.0161 74.409L96.5251 74.3766C97.5964 74.0369 98.6675 73.4222 99.7654 73.3899C108.469 73.2281 117.173 73.1796 125.904 73.0987C134.5 72.4355 143.07 72.4355 151.667 73.0987C159.353 73.0987 167.066 73.0987 174.752 73.0987C175.609 73.0987 176.493 73.0825 177.35 73.0825C198.962 73.2443 220.601 73.4546 242.213 73.5516C247.73 73.584 253.274 73.2767 258.791 73.1149C273.252 72.7105 287.714 72.662 302.176 73.212C306.38 73.3737 310.746 73.0664 314.656 74.3928C317.789 73.8105 320.869 74.1178 323.922 74.6516C353.568 74.7972 383.215 74.9428 412.861 75.0722C415.406 75.0884 417.976 74.8781 420.146 75.9457H420.574C422.958 75.1045 425.341 74.9266 427.725 75.9457C429.68 75.4119 431.635 75.4604 433.59 75.9619C446.605 74.231 459.808 74.4737 472.984 74.6193C475.984 74.1178 478.983 73.7781 482.063 74.3766C483.563 73.5193 485.036 73.5516 486.482 74.4251C487.232 74.0693 487.875 74.134 488.437 74.5869C498.185 74.9428 508.04 74.6516 517.681 75.9619C520.359 75.4119 523.065 75.3633 525.743 75.9457C527.35 75.0884 528.956 75.1045 530.563 75.9457C533.268 75.4119 535.946 75.3633 538.651 75.978C544.007 74.7487 549.685 74.8942 555.255 74.7001C568.726 73.956 582.197 74.1178 595.694 74.4251C604.318 72.6781 613.236 73.1311 622.101 73.1149C628.126 72.5002 634.152 72.484 640.151 73.1311C648.694 72.6458 657.237 72.6781 665.807 73.1149C671.511 72.4679 677.269 72.5326 683.027 72.8561C685.812 71.6105 689.026 71.4003 692.347 71.4003C697.221 71.4003 702.122 71.4003 706.996 71.4164L707.585 71.0606L708.335 71.3032C711.977 69.7018 716.208 69.7503 720.36 69.8635C721.217 69.8959 721.993 70.7209 722.797 71.2223C724.966 73.0987 728.18 73.4384 731.661 73.3737C737.125 73.2767 742.615 73.1958 748.078 73.0987C757.987 72.0635 767.922 72.3385 777.858 72.8723C779.867 72.5326 781.849 71.9017 783.857 71.8855C802.791 71.7076 821.726 71.6429 840.633 71.5458C846.391 70.9797 852.148 70.5591 857.96 71.3355C862.807 70.2194 867.681 70.2032 872.529 71.3032C875.394 70.7209 878.233 70.7694 881.072 71.3355C881.849 71.1253 882.598 70.737 883.402 70.7209C900.836 70.3812 918.271 69.3459 935.732 69.9768C942.347 69.3783 948.962 69.4915 955.603 69.7665C958.737 68.5048 961.897 68.6504 965.057 69.7503L965.432 69.7341C973.332 67.971 981.554 68.3754 989.722 68.4239C999.578 67.421 1009.46 67.6474 1019.34 68.1974C1020.06 67.9548 1020.79 67.4857 1021.51 67.4695C1034.9 67.243 1048.32 67.0489 1061.71 66.871C1067.28 66.321 1072.88 65.8843 1078.5 66.6607C1086.37 65.0431 1094.57 65.8681 1102.58 65.7549C1125.13 65.4313 1147.7 65.8196 1170.25 65.3828C1186.05 65.0917 1201.8 65.2049 1217.57 65.1887C1236.35 65.1725 1255.12 65.0917 1273.89 65.0755C1276.87 65.0755 1279.84 65.2372 1282.81 65.3181C1291.06 64.8814 1299.31 64.3152 1307.58 65.0755C1308.36 64.8652 1309.14 64.4931 1309.91 64.477C1329.14 63.9432 1348.4 63.28 1367.65 63.7491C1373.2 63.2961 1378.74 62.7623 1384.34 63.5549C1390.82 61.905 1397.7 62.2447 1404.4 62.4065C1422.21 62.8109 1439.99 62.4712 1457.77 62.0344C1460.29 61.9697 1462.83 62.1315 1465.38 62.1962C1468.46 61.6138 1471.56 61.3388 1474.72 61.9697C1479.12 60.6595 1483.88 60.9668 1488.49 60.9183C1508.04 60.7242 1527.59 60.6271 1547.14 60.5462C1567.33 60.4977 1587.74 60.4654 1608.15 60.4492C1615.35 60.4492 1622.56 60.5462 1629.76 60.6109C1630.32 60.1418 1630.96 60.0933 1631.69 60.4654C1633 59.608 1634.31 59.5919 1635.65 60.4492C1638.03 59.9315 1640.34 60.158 1642.64 60.6756C1661.79 60.6918 1680.96 60.1418 1700.11 60.9992C1707.29 61.3227 1714.57 60.6109 1721.81 60.7565C1730.67 60.9345 1739.7 60.2065 1748.37 62.0021L1748.51 61.905C1752.28 61.9535 1753.94 63.8785 1756.38 65.124C1757.88 65.2049 1759.38 65.2696 1760.88 65.3505C1765.03 66.8225 1767.57 63.9917 1771.16 63.9755C1778.02 63.0373 1784.9 63.1829 1791.76 63.8785C1793.44 63.7976 1795.16 63.7652 1796.85 63.6358C1800.81 63.3285 1802.04 64.7358 1802.47 66.7578C1802.58 67.2592 1803.09 67.7121 1803.41 68.1974C1804.37 67.6151 1805.34 67.7283 1806.3 68.2136C1808.2 67.2269 1810.24 66.3048 1812 65.2211C1813.56 64.2829 1815.11 63.5064 1817.47 63.7167L1818.11 63.3123L1818.97 63.5388C1821.3 62.5682 1823.63 62.6167 1825.93 63.5549C1845 62.6329 1864.09 63.7976 1883.19 63.4255C1885.28 63.3932 1887.39 63.6682 1889.48 63.7976C1894.6 63.7814 1899.74 63.7814 1904.88 63.7652C1907.45 63.2638 1910.05 63.2476 1912.62 63.7652C1915.19 63.7652 1917.73 63.7652 1920.31 63.7652C1924.59 63.1991 1928.9 63.1505 1933.19 63.7329C1938.92 63.6844 1944.65 63.652 1950.38 63.6035C1952.12 63.5873 1953.35 64.0079 1954.05 64.9461C1956.43 65.4799 1958.87 65.4961 1961.31 65.1078C1964.84 62.4873 1968.51 63.3447 1972.21 65.0108L1972.18 64.9622C1972.56 65.0755 1972.96 65.1564 1973.3 65.2858C1975.55 66.1754 1973.95 69.1356 1978.29 68.8121C1981.66 68.5533 1980.67 66.4828 1981.79 65.2696C1983.35 63.6035 1985.33 63.4094 1987.5 64.9137C1989.83 64.9299 1992.16 64.9461 1994.49 64.9461C1995 64.1373 1995.96 63.7329 1997.43 63.7005L1997.46 63.6844C1998.02 63.3285 1998.56 62.6491 1999.12 62.6491C2009.11 62.5844 2019.18 61.7594 2029.04 63.5549C2035.65 62.9403 2042.29 62.9241 2048.91 63.5711L2050.06 63.2314L2051.26 63.4902L2051.18 63.5549C2057.64 62.3094 2064.07 62.4065 2070.55 63.5388C2073.41 62.9403 2076.25 63.005 2079.09 63.5711C2093.42 62.0991 2107.91 62.6976 2122.31 62.6006C2129.06 62.552 2135.95 62.0829 2142.53 63.5549C2144.84 62.9888 2147.06 63.1182 2149.23 63.8461C2154.69 64.2829 2160.42 63.4417 2165.62 65.0917C2184.15 64.299 2202.66 64.8652 2221.19 65.3181C2225.63 64.6064 2227.48 68.2783 2232.28 67.5342C2236.21 66.9195 2240.44 66.9842 2244.57 66.8548C2247.03 66.7739 2249.52 66.9195 2252.01 66.9681C2255.07 65.9004 2258.55 66.2887 2261.9 66.2887C2275.1 66.2401 2288.3 66.2401 2301.51 66.2887C2307.02 66.3048 2312.54 66.5313 2318.06 66.6607C2319.77 65.9166 2321.3 64.9622 2323.63 64.9784C2325.58 63.7329 2327.4 63.9593 2329.17 65.1887C2337.69 65.6902 2346.23 66.1916 2354.77 65.3181C2369.1 64.6549 2383.43 64.8814 2397.78 65.124C2401.21 63.8946 2405.01 64.0726 2408.76 64.0402C2423.33 63.9755 2437.9 63.8785 2452.44 63.7976C2453.84 63.3285 2455.25 63.1829 2456.78 63.5388C2459 62.5359 2461.2 62.6653 2463.4 63.5711C2472.34 62.8756 2481.31 63.3447 2490.26 63.5549C2491.62 62.6814 2492.99 62.6814 2494.35 63.5549C2495.48 63.0535 2496.6 62.9888 2497.73 63.5388C2500.97 62.4712 2504.24 62.4712 2507.48 63.5388C2512.81 62.9564 2518.11 62.9726 2523.41 63.5388C2526.63 62.1153 2530.35 61.9697 2534.15 62.0021C2542.05 62.0668 2549.95 62.1476 2557.85 62.2285C2560.48 61.4359 2563.05 61.533 2565.62 62.3094C2567.92 62.0829 2569.93 62.3903 2571.43 63.5549C2572.18 63.28 2572.8 63.3447 2573.33 63.7814C2575.9 63.7976 2578.45 63.8138 2581.02 63.8299C2591.89 63.1505 2602.76 63.2638 2613.66 63.5711C2619.64 61.9212 2626.04 62.4065 2632.28 62.3741C2643.18 62.3094 2654.1 62.4873 2665 62.6653C2666.58 62.6976 2668.14 63.2476 2669.69 63.5549C2672.34 62.9403 2675.02 62.9726 2677.67 63.5549C2685.84 61.8727 2694.41 62.6653 2702.66 62.6491C2715.27 62.6329 2727.83 62.1638 2740.42 62.18C2741.81 61.6785 2743.23 61.5815 2744.73 62.0021C2748.77 60.8536 2752.84 60.8374 2756.89 61.9859C2759.16 61.5006 2761.41 61.1933 2763.56 62.1638C2765.27 62.0182 2766.13 62.5359 2766.5 63.4579C2769.13 64.202 2772.39 63.7005 2774.67 65.0917C2776.81 65.1078 2778.93 65.1402 2781.07 65.1564C2784.02 63.7976 2786.96 63.9755 2789.91 65.1402C2802.55 64.5579 2815.19 64.3476 2827.83 65.2372C2837.47 65.9975 2847.3 65.3343 2856.86 66.6769C2864.71 66.1269 2872.55 66.1431 2880.37 66.4343C2880.46 66.499 2880.54 66.5798 2880.62 66.6445C2882.01 66.6445 2883.43 66.6284 2884.82 66.6284C2885.14 66.6445 2885.46 66.6445 2885.78 66.6607C2885.81 66.6445 2885.86 66.6284 2885.89 66.6122C2897.22 66.5475 2908.58 66.4828 2919.9 66.4828C2923.68 66.4828 2927.46 66.7901 2931.23 66.9519C2932.06 66.9519 2932.92 66.9519 2933.75 66.9519C2934.63 66.9357 2935.52 66.9357 2936.4 66.9195C2937.28 66.7739 2938.14 66.6284 2939.03 66.4828C2944.38 67.7445 2949.87 67.4857 2955.28 66.7901C2956.59 66.6284 2956.14 65.6416 2954.99 65.124C2954.75 64.6387 2954.4 64.202 2953.89 63.8138L2952.76 63.9755L2951.75 63.652C2947.46 64.0887 2943.2 64.0887 2938.92 63.6682C2935.49 64.4608 2932.04 64.3152 2928.61 63.6682C2925.55 63.6844 2922.47 63.7167 2919.42 63.7329C2913.48 63.0211 2907.16 63.8946 2901.4 62.3094C2899.98 62.8109 2898.59 62.7947 2897.22 62.2285C2896.42 62.2771 2895.56 62.455 2894.78 62.3579C2894.11 62.2771 2893.44 61.9535 2892.96 61.63C2892.29 61.1933 2892.53 60.6918 2893.52 60.433C2895 60.0286 2896.47 59.4139 2898 59.3654C2904.58 59.1875 2911.2 59.1875 2917.79 59.1228C2929.79 58.3463 2941.81 58.039 2953.81 59.1066C2956.38 59.0904 2958.95 59.0581 2961.52 59.0419C2962.08 58.5889 2962.75 58.5566 2963.45 58.9125C2965.65 57.9581 2967.87 57.9096 2970.12 58.8801C2972.47 58.3625 2974.72 58.5889 2976.97 59.1551C2981.98 58.9772 2987.02 58.7831 2992.02 58.6051L2991.78 58.7184C2996.74 56.3405 3002.36 57.5052 3007.77 57.6022C3018.62 57.0522 3029.49 56.567 3040.36 57.3434C3042.64 56.4052 3045.26 56.6478 3047.81 56.5993C3059.32 56.4052 3070.84 56.2273 3082.33 56.0332C3089.21 55.4023 3096.07 55.3699 3102.95 56.0655C3108.07 55.5964 3113.21 55.6449 3118.32 56.017C3127.29 55.6611 3136.27 55.0141 3145.29 55.839C3146.04 55.6288 3146.79 55.2405 3147.57 55.2082C3168.67 54.5935 3189.75 53.9465 3210.88 54.4964C3213.4 54.367 3215.91 54.1244 3218.43 54.1082C3245.99 54.0112 3273.55 53.9141 3301.1 53.8818C3305.31 53.8818 3309.54 54.1568 3313.74 54.3023C3319.72 54.0597 3325.66 53.6553 3331.63 53.6068C3353.49 53.4288 3375.31 53.3641 3397.17 53.2671C3398.42 53.2671 3399.71 53.3965 3400.97 53.4774C3401.18 53.4935 3401.34 53.5259 3401.5 53.5582C3401.26 53.5744 3401.05 53.5744 3400.81 53.6068C3399.82 53.7038 3398.64 54.4479 3398.21 55.0464C3398 55.3538 3398 55.5802 3398.13 55.742C3392.83 56.0008 3387.5 56.292 3382.2 56.3567C3367.2 56.5346 3352.23 56.6155 3337.23 56.5831C3332.87 56.567 3331.31 57.6831 3331.18 60.1418C3331.12 61.1609 3329.28 60.9668 3328.1 60.9183C3326.84 60.8697 3325.61 60.5948 3324.35 60.4168C3319.96 60.4815 3315.54 60.5462 3311.15 60.6109C3309.35 60.7242 3307.58 60.7403 3305.95 60.4654C3307.13 60.4492 3308.28 60.433 3309.46 60.4168C3309.3 59.9315 3308.98 59.4301 3308.98 58.9448C3309 56.8258 3307.53 55.7096 3303.81 55.8229C3302.17 55.8714 3300.49 55.7096 3298.85 55.6288C3297.33 55.7582 3295.77 55.9038 3294.25 56.0332C3293.28 57.4243 3294.94 58.3948 3295.8 59.4948C3294.06 59.4948 3292.32 59.3977 3290.58 59.1713L3289.91 59.5271L3289.13 59.236C3287.98 59.5433 3286.86 59.883 3285.7 60.1742C3284.58 60.4654 3283.13 60.6433 3283.35 61.5977C3283.43 61.9212 3284.39 62.3741 3285.03 62.4226C3287.95 62.6976 3290.93 62.8109 3293.85 63.0697C3295.05 63.1829 3296.26 63.4902 3296.44 64.2505C3295.69 64.3799 3295.4 64.6873 3295.37 65.1725C3295.37 65.2696 3295.37 65.3343 3295.4 65.4313C3286.99 65.8034 3278.58 65.8519 3270.2 65.399C3269.21 66.1107 3267.57 66.6284 3268.06 67.793C3268.62 69.1033 3270.52 68.9092 3272.05 68.893C3276.04 68.893 3280.19 68.0518 3283.86 69.7341C3287.04 69.3297 3290.18 69.4106 3293.26 70.09C3297.54 70.7047 3301.8 70.2679 3306.06 69.9444C3307.56 69.8797 3309.06 69.8312 3310.53 69.7665C3311.84 68.9092 3313.18 68.893 3314.55 69.7503C3321.03 69.3297 3327.48 69.0871 3333.94 69.815C3334.95 69.3621 3335.97 68.893 3336.99 68.4401C3335.92 66.5313 3333.16 66.7254 3330.67 66.6607C3329.68 66.6284 3328.69 66.6122 3327.7 66.596C3327.96 66.1269 3328.47 65.7549 3329.73 65.6255C3332.33 65.2372 3334.9 65.2858 3337.42 65.8357C3338.44 66.224 3339.45 66.6122 3340.47 67.0004C3341.73 66.871 3342.99 66.7739 3344.25 66.6284C3345.56 66.4828 3346.95 65.9975 3346.74 65.2696C3346.6 64.7681 3344.97 64.0887 3343.98 64.0726C3334.71 63.9593 3325.45 63.9108 3316.18 63.8623C3316.8 63.8299 3317.44 63.7976 3318.06 63.8138C3331.66 63.8461 3345.26 63.927 3358.87 64.0726C3359.86 64.0887 3361.47 64.7843 3361.63 65.2696C3361.82 65.9975 3360.45 66.4828 3359.14 66.6284C3357.88 66.7578 3356.62 66.871 3355.36 67.0004C3355.31 67.3886 3355.31 67.7769 3355.36 68.1813C3359.06 69.2327 3362.73 70.2841 3366.42 71.3194L3366.53 71.3032C3368.22 70.3003 3372.23 69.8959 3368.72 67.5989C3367.87 67.0328 3368.14 65.7063 3370.39 65.4961C3371.51 64.7196 3372.85 64.6549 3374.32 65.1078C3385.57 62.0506 3397.3 63.5226 3408.9 63.7814C3412.73 63.2638 3416.58 62.8594 3420.47 63.5711C3422.9 62.552 3425.34 62.5682 3427.8 63.5549C3430.99 63.0373 3434.1 63.2961 3437.2 63.8299C3444.03 63.3932 3450.89 63.377 3457.72 63.8461C3473.12 62.4873 3488.57 63.4417 3504.02 63.7814C3513.98 63.927 3523.97 64.0564 3533.94 64.2343C3536.08 64.2667 3538.11 64.2182 3539.99 63.5226C3540.02 63.5064 3540.04 63.4902 3540.07 63.4579C3542.56 63.0535 3545.1 63.28 3547.65 63.5711C3547.43 62.6491 3547.19 61.7271 3546.98 60.805C3545.96 61.0153 3544.97 61.1124 3543.98 61.1124C3544.51 60.7889 3545.05 60.4815 3545.56 60.158C3546.31 59.2845 3547.03 58.411 3547.78 57.5537C3547.7 56.6478 3547.65 55.742 3547.57 54.8361C3546.55 54.4641 3545.45 54.4156 3544.33 54.4803C3543.9 54.4479 3543.47 54.4156 3543.04 54.3832C3543.04 54.4479 3543.04 54.5126 3543.04 54.5773C3541.38 54.7229 3539.64 54.917 3537.98 54.4479C3537.95 54.4317 3537.95 54.4156 3537.93 54.3994C3537.87 54.3994 3537.82 54.3832 3537.77 54.3832C3537.31 54.2376 3536.88 54.0597 3536.43 53.8009C3537.15 53.4935 3537.9 53.2347 3538.68 53.0406C3539.4 52.9597 3540.12 52.895 3540.85 52.8142C3540.82 52.7495 3540.82 52.6847 3540.79 52.62C3545.61 51.8598 3550.84 52.4259 3555.28 51.1966C3555.47 50.3069 3556.06 49.6275 3557.74 49.5952C3558.84 48.3011 3560.88 48.1393 3562.97 48.0746C3564.57 47.0232 3566.18 45.9718 3567.79 44.9203C3567.49 44.4998 3567.52 44.0954 3567.84 43.691C3567.12 43.1086 3566.42 42.5263 3565.7 41.944C3562.27 41.394 3558.92 41.6851 3555.58 42.2351C3552.01 44.0145 3547.92 43.8365 3543.82 43.3189C3542.88 43.2057 3541.68 42.6719 3541.27 42.1542C3544.41 41.669 3547.59 41.4263 3550.81 41.944C3550.94 41.4425 3551 40.9411 3550.94 40.4396C3550.81 40.4234 3550.65 40.4072 3550.51 40.4072C3552.92 39.7926 3555.31 39.1941 3557.72 38.5794C3566.23 38.6441 3574.72 38.6603 3583.24 38.7088C3583.37 38.272 3583.56 37.8515 3583.8 37.4309L3584.07 37.5441C3583.21 36.978 3582.36 36.3956 3581.5 35.8295C3580.67 35.7324 3579.81 35.6354 3578.98 35.5383C3577.05 35.5707 3575.1 35.5868 3573.17 35.6192C3571.83 34.3413 3574.19 34.1472 3575.21 33.5972C3578.18 32.012 3578.21 32.0443 3574.91 30.7502C3574.21 30.4753 3573.65 30.1032 3573.01 29.7797V29.7959C3571 29.7959 3569.88 29.1003 3569.69 27.9842C3569.42 26.4151 3571.91 26.8033 3573.22 26.4151C3573.92 26.2048 3574.83 26.2533 3575.63 26.1886C3577.62 24.6681 3580.24 23.7461 3583.08 23.002C3583.51 21.8212 3584.36 20.8182 3586.13 20.155C3586.16 19.1521 3586.19 18.1492 3586.21 17.1463C3585.22 16.9684 3584.82 16.6125 3585.25 16.1272C3585.36 15.9978 3585.92 15.9978 3586.29 15.9493C3586.37 15.7552 3586.51 15.6096 3586.67 15.5126C3587.44 15.5126 3588.22 15.5126 3589 15.4964C3589.02 15.2537 3589.05 15.0111 3589.08 14.7523C3590.52 13.7332 3591.33 12.5847 3590.87 11.1289C3589.8 10.6113 3588.73 10.0775 3587.63 9.55983L3586.91 9.78629L3586.32 9.44659C3582.01 9.89952 3577.72 9.89952 3573.41 9.46278L3572.82 9.77012L3572.15 9.52747C3569.5 10.8215 3566.42 11.0642 3563.15 10.9024C3562.3 10.9186 3561.47 10.951 3560.61 10.9671C3552.01 10.9833 3543.44 10.9995 3534.85 10.9995L3534.1 11.3554L3533.29 11.048C3529.22 12.2774 3525.13 12.2289 3521.05 11.048C3520.09 11.598 3519.13 11.6627 3518.16 11.048C3516.26 11.5171 3514.41 12.3097 3512.46 12.3906C3502.9 12.7788 3493.31 12.9729 3483.8 12.0671C3482.68 11.9539 3481.66 11.3877 3480.59 11.0157L3480.75 11.0804C3476.68 11.3554 3472.63 11.5656 3469.45 9.52747C3466.72 10.1422 3464.01 10.1745 3461.31 9.47895C3456.81 10.0775 3452.31 10.676 3447.81 11.2583C3445.69 13.0376 3445.05 13.0376 3441.94 11.2906C3434.82 10.6921 3427.7 10.0775 3420.57 9.47895C3413.23 10.2554 3405.92 10.3039 3398.61 9.36572C3391.84 9.94806 3385.03 9.77011 3378.26 9.52747C3375.23 11.4201 3372.18 11.0642 3369.1 9.51131L3369.02 9.49512C3361.47 11.873 3353.41 10.9186 3345.53 10.5627C3343.93 10.498 3342.53 8.86427 3341.01 7.95841C3336.59 8.67015 3332.17 8.65398 3327.75 7.95841C3326.54 9.68923 3325.05 11.1451 3321.35 11.0965C3315.38 11.0157 3309.41 11.0157 3303.43 10.9833C3299.17 11.7921 3294.92 11.7759 3290.63 10.9995C3283.8 11.0965 3277 11.2583 3270.17 11.2583C3215.94 11.2745 3161.71 11.2745 3107.48 11.2583C3102.9 11.2583 3098.26 11.5818 3092.8 10.5304C3097.49 9.59218 3097.49 6.06583 3102.42 5.93642C3102.42 5.07911 3102.42 4.23797 3102.44 3.38065C3098.1 3.29977 3093.44 4.01151 3089.91 1.69835C3087.39 1.69835 3084.85 1.68217 3082.33 1.68217L3081.77 2.00569L3081.07 1.77922C3080.29 2.71742 3079.17 3.29976 3077.35 3.26741L3077.46 3.23505C3070.89 5.66144 3063.72 4.96588 3056.62 4.80412L3055.87 5.14381L3055.07 4.8203C3051.59 5.93643 3047.76 5.79085 3044.06 5.87173C3032.84 6.09819 3021.59 6.17907 3010.37 6.32465C3009.06 6.89081 3007.72 6.90698 3006.35 6.38935C3001.05 7.79665 2995.45 8.00694 2989.77 7.87753L2989.19 8.1687L2988.54 7.90989C2986.56 8.29811 2984.63 8.9128 2982.62 9.02602C2962.73 10.0613 2942.85 9.72159 2923.01 8.60545C2921.78 8.54075 2920.6 8.15253 2919.42 7.90989L2918.62 8.21722L2917.87 7.86137C2898.26 7.81284 2878.63 8.02312 2859.06 7.65108C2819.82 6.89081 2780.59 7.35991 2741.36 7.65108C2723.44 7.78048 2705.52 7.99077 2687.63 8.12018C2684.66 8.13635 2681.69 7.94224 2678.71 7.84518C2674.78 8.67015 2670.84 8.62163 2666.9 7.89371C2666.15 8.104 2665.38 8.49222 2664.63 8.49222C2643.63 8.79956 2622.64 9.05838 2601.64 9.33337C2600.3 9.86717 2598.93 9.9157 2597.51 9.44659C2586.75 11.3392 2575.61 10.8539 2564.63 11.1774C2557 11.4039 2549.28 10.8539 2541.68 11.1451C2536.35 11.3392 2532.73 10.0936 2529.52 7.86137C2527.19 8.18488 2524.7 8.26575 2523.47 9.89952C2522.72 10.9024 2521.14 11.1612 2519.37 10.9186C2518.06 11.4848 2516.72 11.5171 2515.35 11.0157C2509.33 12.6333 2502.9 12.0347 2496.63 12.1803C2485.25 12.4391 2473.84 11.873 2462.49 12.6494C2458.68 12.9082 2457.26 11.4848 2457.64 9.33337C2456.81 8.79957 2455.98 8.28194 2455.15 7.74813C2450.86 7.76431 2446.6 7.76431 2442.32 7.78049C2438.25 11.3715 2432.68 10.0451 2427.51 9.23631C2426.01 8.99368 2426.22 7.84518 2426.49 6.90698C2426.79 7.19815 2427.13 7.48932 2427.43 7.78049C2431.71 7.76431 2435.97 7.76431 2440.26 7.74813C2440.2 7.26286 2440.18 6.76141 2440.12 6.27613C2436.83 6.19525 2435.01 5.20851 2434.85 3.15417C2433.99 3.15417 2433.19 3.02477 2432.44 2.79831C2430.78 2.83066 2429.12 2.87919 2427.46 2.91154C2427 3.20271 2426.44 3.34829 2425.77 3.34829C2424.67 4.61001 2425.29 5.64526 2426.22 6.63199C2426.09 6.66434 2425.98 6.6967 2425.98 6.6967L2425.5 6.40553C2423.92 9.67306 2423.92 9.67306 2417.01 9.54365C2412.49 11.3554 2407.99 11.6789 2403.49 9.51131L2403.65 9.33337C2403.03 9.34955 2402.39 9.34955 2401.77 9.36572C2401.59 9.28484 2401.42 9.18778 2401.42 9.18778L2400.54 9.31719C2400.09 8.26576 2399.63 7.21432 2399.18 6.1629C2397.49 6.21143 2395.83 6.24377 2394.14 6.2923C2393.95 6.74522 2393.98 7.19815 2394.22 7.65108C2393.66 8.36282 2392.99 9.00985 2391.38 8.89662C2390.44 9.09073 2389.53 9.30102 2388.6 9.51131C2389.05 9.72159 2389.51 9.89952 2389.96 10.0775C2379.01 10.9833 2368.08 10.8377 2357.21 9.41425L2357.32 9.46278C2353.92 9.44659 2350.51 9.44659 2347.11 9.43042C2343.71 10.1583 2340.28 10.1583 2336.88 9.43042C2330.88 9.39806 2324.86 9.36572 2318.86 9.33337C2318 9.34955 2317.17 9.34955 2316.32 9.36572C2312.54 9.43043 2308.74 9.46278 2304.96 9.576C2302.17 9.65688 2300.11 8.9128 2298.26 7.78049C2291.89 8.104 2285.49 8.49222 2279.09 7.99077C2275.58 7.71578 2275.66 6.08202 2275.39 4.56148C2273.84 4.69089 2272.31 4.8203 2270.76 4.93353C2271.35 6.59964 2270.97 7.94224 2267.47 8.02312C2265.81 8.07164 2264.12 7.94224 2262.46 7.87753L2262.57 7.82901C2258.68 9.1069 2254.77 9.23631 2250.84 7.89371C2248.26 8.58928 2245.67 8.6378 2243.12 7.87753C2238.97 9.18778 2234.79 9.05838 2230.62 7.89371L2229.73 8.1687L2228.96 7.81284C2225.53 8.28194 2222.07 8.2981 2218.62 7.84518C2216.9 8.45986 2215.22 8.39516 2213.53 7.79665C2210.96 8.23341 2208.36 8.26576 2205.79 7.82901L2205.09 8.18488L2204.32 7.90989C2201.88 8.9775 2199.44 9.0422 2197.01 7.90989L2196.26 8.20106L2195.56 7.86137C2194.73 7.86137 2193.93 7.86136 2193.1 7.87753L2193.18 7.84518C2190.5 9.00984 2187.79 9.83482 2185.04 7.99077C2179.79 7.90989 2174.35 8.45987 2169.72 6.32465C2167.17 6.72905 2164.63 6.6967 2162.11 6.24377C2159.57 6.93934 2157 7.05256 2154.42 6.25994C2152.58 6.55111 2151.75 5.93643 2151.21 5.03059C2148.91 4.96588 2146.6 4.91735 2144.33 4.85265L2144.49 4.78794C2137.47 7.45696 2130.48 7.42461 2123.55 4.64236L2123.52 4.62618C2122.74 4.69089 2122.02 4.61001 2121.32 4.38354C2118.89 4.5453 2116.45 4.70706 2114.04 4.86882L2113.45 4.67471C2109.67 7.05257 2108.07 7.05257 2102.98 4.62618L2102.95 4.61H2102.92C2104.1 4.52912 2105.25 4.44825 2106.43 4.38354C2106.81 3.73651 2107.53 3.39681 2108.68 3.47769C2109.24 3.15417 2109.91 2.99242 2110.69 2.97624C2110.77 1.98951 2110.85 0.98661 2110.93 -0.00012207C2107.69 -0.00012207 2104.48 -0.00012207 2101.24 -0.00012207C2101.53 1.50423 2102.26 3.10565 2098.72 3.63946C2098.61 3.84975 2098.61 4.06003 2098.67 4.25414C2097.65 4.27032 2096.63 4.41589 2095.64 4.83646C2092.11 6.35699 2090.28 5.14381 2088.84 3.31593C2086.7 3.86591 2084.55 3.84974 2082.44 3.23505C2081.66 3.31593 2080.72 3.62328 2080.16 3.44534C2077.64 2.65273 2075.77 2.5395 2074.64 4.51295C2074.32 5.07911 2072.98 5.4188 2072.1 5.87173C2071.43 6.43788 2070.6 6.56729 2069.56 6.2923C2068.81 6.64817 2068 6.68052 2067.2 6.38935C2065.78 7.27903 2064.2 7.99077 2062 7.94225L2062.14 7.89371C2056.51 9.89952 2050.89 9.13926 2045.24 7.90989C2043.87 8.39516 2042.56 8.31429 2041.27 7.79665C2038.7 8.26575 2036.11 8.26575 2033.54 7.79665L2032.62 8.15253L2031.63 7.89371C2030.46 8.71868 2029.3 8.89662 2028.18 7.86137C2022.42 6.97169 2016.5 8.65398 2010.77 7.48932C2007.99 7.50549 2005.2 7.52167 2002.42 7.53784C1996.66 8.65398 1990.77 7.73195 1984.95 7.92606C1983.83 9.20396 1982.92 8.99368 1982.12 7.73196L1982.09 7.71577C1979.52 7.19815 1976.97 6.66434 1974.4 6.14672C1971 7.08492 1967.57 7.00404 1964.12 6.27613C1961.63 6.77758 1959.11 6.7614 1956.59 6.34082C1954.53 7.58636 1952.44 7.02021 1950.35 6.34082C1946.36 7.03638 1942.37 7.1011 1938.44 6.22759C1932.46 6.98786 1926.52 6.30847 1920.55 6.25994C1918.46 7.79665 1915.57 8.0393 1912.54 8.00694C1908.31 7.97459 1904.08 7.89371 1899.84 7.84518L1899.26 8.15253L1898.61 7.90989C1894.25 9.70541 1889.21 8.91279 1884.47 9.26866L1884.37 9.28484C1883.32 10.3363 1882.09 10.3363 1880.72 9.49512L1879.84 9.64071L1879.28 9.20396C1873.97 8.50839 1869.61 6.03349 1863.82 6.27613C1863.02 6.34083 1862.24 6.40553 1861.44 6.47023C1858.44 7.6996 1855.47 7.73196 1852.52 6.40553L1851.69 6.66434L1851 6.2923C1845.67 7.35991 1843.36 4.39972 1839.72 3.21888C1835.36 3.93062 1830.96 3.93062 1826.6 3.23505C1823.31 6.80993 1818.38 7.00404 1813.16 5.25704C1811.2 4.59383 1809.65 4.62618 1807.83 4.86882C1808.09 5.8232 1808.39 6.7614 1808.58 7.73196C1808.71 8.52457 1808.28 9.43042 1806.83 9.3819C1798.08 9.09073 1789.19 9.60836 1780.67 7.86137L1779.79 8.13635L1779.01 7.78049C1777.3 7.76431 1775.55 7.76431 1773.84 7.74813C1769.58 8.5731 1765.3 8.6378 1761.01 7.79665C1759.33 7.81284 1757.67 7.81284 1755.98 7.82901C1751.69 9.68924 1751.67 9.67307 1747.65 7.94225L1747.81 8.05547C1745.35 7.94224 1742.88 7.81283 1740.39 7.6996L1739.78 8.08782L1738.95 7.89371C1734.15 10.1098 1729.36 9.39807 1724.56 7.90989L1724.78 7.99077C1718.03 6.79375 1711.17 8.41135 1704.4 7.74813C1700.11 8.58928 1695.85 8.62162 1691.57 7.76431C1688.17 7.81283 1684.77 7.84519 1681.37 7.94225C1677.64 8.05547 1676.17 6.53494 1674.94 4.80412L1674.19 5.04675L1673.57 4.69088C1670.98 5.12763 1668.4 5.12764 1665.83 4.67471L1665.14 5.03059L1664.31 4.80412C1663.05 5.69379 1661.79 6.58347 1660.5 7.47314L1660.26 7.6349C1659.27 8.02312 1658.31 8.73486 1657.29 8.76721C1650.3 8.96132 1643.26 9.52747 1636.48 7.89371C1635.09 8.37899 1633.72 8.33046 1632.41 7.79665C1629.84 8.23341 1627.24 8.33046 1624.64 7.89371L1624.06 8.15253L1623.47 7.87753C1618.32 9.62453 1613.18 8.97749 1608.01 7.87753C1602.01 9.73776 1596.02 9.43042 1590.02 7.89371C1583.94 8.65398 1577.88 8.62163 1571.81 7.89371C1569.58 8.86427 1566.98 8.71869 1564.47 8.71869C1534.39 8.73486 1504.29 8.73486 1474.22 8.71869C1471.67 8.71869 1469.1 8.78339 1466.85 7.87753C1464.33 8.03929 1461.79 8.33046 1459.27 8.33046C1417.87 8.36282 1376.47 8.36282 1335.06 8.33046C1332.54 8.33046 1330 8.03929 1327.48 7.87753C1325.45 8.15253 1323.41 8.65398 1321.38 8.67015C1284.9 9.02602 1248.43 9.33337 1211.95 9.62453C1210.69 9.64072 1209.43 9.43042 1208.17 9.31719C1205.23 10.0775 1202.26 10.1745 1199.26 9.3819C1196.69 10.5789 1193.58 10.2877 1190.69 10.3524C1168.24 10.9024 1145.8 11.4362 1123.33 10.8377C1122.48 10.8377 1121.62 10.8215 1120.76 10.8215C1099.34 11.1127 1077.91 11.6303 1056.46 10.8539C1047.06 11.8083 1037.63 11.7274 1028.21 10.9024C1024.32 11.2906 1020.47 11.6789 1017.39 9.64071L1017.36 9.65688C1016.58 9.62453 1015.73 9.70541 1015.03 9.54365C1014.36 9.39807 1013.34 9.04221 1013.32 8.71869C1013.18 7.86137 1014.52 7.78049 1015.57 7.68343C1016.34 7.60255 1017.15 7.68343 1017.92 7.68343L1018.51 7.2952L1019.32 7.52167C1022.21 6.95551 1025.1 6.38936 1027.99 5.80702C1028.05 4.93353 1028.07 4.06003 1028.13 3.18653C1027.16 2.74979 1026.2 2.31303 1025.23 1.87629C1023.76 1.84393 1022.26 1.7954 1020.79 1.76305C1019.72 2.49097 1018.62 2.89536 1017.55 3.05712C1016.64 2.49097 1015.43 2.74978 1014.25 2.99242C1012.54 2.70126 1010.83 2.10275 1009.11 1.63364L1008.82 1.68217C1008.07 2.57185 1006.75 2.94389 1005.2 3.12183C1004.88 3.99533 1004.24 4.64236 1002.47 4.4806L1001.77 4.93353L1000.81 4.73942C997.596 5.83938 994.382 6.00114 991.142 4.75559L990.177 4.86882L989.588 4.39972C988.142 4.49678 987.151 4.14091 986.615 3.34829C985.116 3.31594 983.616 3.28358 982.116 3.25124C977.483 5.85555 972.823 4.90117 968.164 3.20271L967.253 3.41299L966.503 3.04095C963.075 3.04095 959.647 3.04095 956.219 3.04095L955.523 3.42917L954.639 3.23505C953.032 4.39972 950.863 4.62619 948.533 4.54531L948.426 4.56148C945.909 6.06583 943.418 6.45406 940.927 4.54531L940.793 4.49678C938.303 4.57766 935.812 4.64236 933.322 4.72324C932.09 5.87173 930.777 5.56438 929.465 4.77177C928.073 5.25705 926.733 5.24087 925.394 4.67471C920.226 4.67471 915.084 4.67471 909.915 4.67471L909.326 5.03059L908.576 4.80412C907.076 6.27613 904.907 6.69669 902.202 6.25994C900.836 6.80992 899.47 6.80993 898.104 6.2923C889.427 8.28193 880.375 7.87754 871.377 7.73196C870.038 8.26576 868.646 8.31428 867.226 7.84518C854.184 9.67306 840.9 9.31719 827.671 9.31719C826.439 9.86717 825.18 9.9157 823.868 9.43042C823.788 9.94804 823.547 10.4657 823.68 10.9671C824.136 12.6818 823.868 13.9758 820.172 13.9758C813.798 13.9597 807.424 14.0567 801.024 14.0729C764.869 14.1538 728.715 14.2347 692.588 14.2994C690.472 14.2994 688.383 14.0891 686.268 13.9597C679.01 14.8817 671.752 14.8655 664.495 14.0406C662.7 14.8817 660.585 14.8817 658.469 14.9464C641.168 15.4155 623.868 15.917 606.541 15.5611L605.898 15.917L605.148 15.6581C601.747 17.1787 598.373 17.2919 594.971 15.6581C594.034 16.2728 593.124 16.2081 592.213 15.642C585.518 17.0816 578.823 16.9522 572.101 15.642C559.942 16.4184 547.783 16.4184 535.625 15.642C534.018 15.917 532.411 16.4022 530.804 16.4184C499.042 16.7904 467.253 17.114 435.464 17.4213C434.205 17.4375 432.947 17.2434 431.688 17.1463C426.573 17.9551 421.458 17.9551 416.316 17.1463C408.576 17.5992 400.864 17.5992 393.124 17.114C389.267 17.9551 385.411 17.9228 381.554 17.1787C379.947 17.4537 378.367 17.9551 376.734 17.9875C359.701 18.2139 342.722 19.6051 325.636 18.3919C320.199 18.0036 314.575 18.5213 309.031 18.5374C279.198 18.6992 249.337 18.8448 219.503 18.9742C217.387 18.9904 215.271 18.7801 213.156 18.6669C207.184 19.4271 201.185 19.6698 195.213 18.7154C191.758 19.1845 188.33 19.136 184.875 18.6669L184.099 19.0227L183.215 18.7801C179.064 20.3653 174.913 21.1094 170.762 18.8124C167.253 19.4595 163.772 19.4757 160.263 18.7801C156.086 19.9771 151.908 20.0095 147.73 18.7801C146.391 19.2977 145.052 19.2815 143.766 18.7154C139.722 19.1521 136.054 18.586 132.653 17.2272L131.715 17.486L130.885 17.1301C129.171 17.1301 127.43 17.1301 125.716 17.1463C119.208 18.0522 112.7 17.9551 106.166 17.2272C105.389 17.4375 104.64 17.7934 103.863 17.8095C89.2942 18.2786 74.7251 19.1036 60.1562 17.8419C59.3528 17.7772 58.6299 17.4375 57.8801 17.2272C54.7734 17.9066 51.6938 17.9389 48.6409 17.1463C43.5525 17.6801 38.437 17.5345 33.3218 17.2434C29.0637 19.0713 28.9834 19.0551 25.0466 17.2919L25.2344 17.4051C21.8867 17.3081 18.5391 17.211 15.1914 17.1301C13.0488 17.7934 10.8796 17.8904 8.68359 17.2595C6.16626 18.4242 3.62207 18.2301 1.10474 17.2434L1.05103 17.2595C-1.19849 18.0522 -3.42163 19.4595 -5.75146 17.4051C-8.10815 16.7419 -10.4648 16.7581 -12.8752 17.3404L-12.7144 17.2595C-18.74 19.1521 -25.2747 18.958 -31.7556 18.8286C-35.3977 18.7477 -37.0049 16.564 -39.8972 15.6905L-40.1917 15.7228C-43.0571 17.3728 -46.3245 18.6507 -50.4219 18.3272C-59.3936 17.6154 -68.2578 18.958 -77.2026 18.7477C-79.0237 19.6536 -80.8452 19.9933 -82.7734 18.8771C-85.2908 19.0389 -87.3264 18.5051 -88.8796 17.2919C-89.7903 17.8419 -90.6736 17.9066 -91.5039 17.2272C-93.9678 18.1654 -96.4316 18.2301 -98.8955 17.2434C-100.717 17.8419 -102.538 17.8581 -104.385 17.3081C-104.975 17.9389 -105.403 18.6669 -106.153 19.2007C-107.626 20.2683 -109.206 20.6565 -110.974 19.2654C-111.911 18.5051 -113.197 17.9066 -114.348 17.2434H-114.991C-116.464 18.133 -117.937 18.133 -119.409 17.2434C-120.507 17.7772 -121.632 17.7772 -122.73 17.2272C-124.605 17.7772 -126.48 18.311 -128.354 18.861C-128.622 19.7992 -128.542 20.8344 -130.069 21.4815C-131.97 22.2741 -134.059 22.2255 -136.067 21.7726C-139.335 21.0124 -141.424 19.5727 -142.361 17.5507C-143.861 17.4375 -145.333 17.3243 -146.833 17.1949C-147.69 17.1463 -148.547 17.0978 -149.377 17.0331C-151.922 16.9522 -154.52 16.7096 -156.769 17.7287L-156.742 18.0683C-155.564 18.7963 -153.716 19.5727 -157.064 20.0095L-157.679 20.5109L-158.67 20.3491C-165.125 22.6623 -171.606 23.2446 -178.114 20.43L-177.953 20.5271C-179.56 20.43 -181.193 20.3491 -182.8 20.2521C-185.023 20.9477 -187.246 20.9638 -189.522 20.3491C-192.522 21.4006 -195.468 21.5462 -198.413 20.2683L-198.36 20.3006C-199.19 20.608 -199.993 20.5918 -200.797 20.2521L-201.627 20.608L-202.538 20.3491C-204.626 21.4329 -206.662 21.3035 -208.67 20.3006C-222.891 20.9153 -237.112 21.4006 -251.413 21.2065C-256.046 21.1418 -260.652 21.1094 -265.098 20.2197C-276.694 21.2226 -288.317 21.0609 -299.94 20.3491C-303.207 21.5785 -306.501 21.4168 -309.769 20.3491C-314.643 20.9315 -319.49 21.3035 -324.257 20.0095C-326.614 20.0903 -328.756 19.8153 -330.551 18.8124C-335.291 19.4433 -340.031 19.5242 -344.744 18.7316C-353.287 19.2007 -361.804 19.233 -370.32 18.5213C-375.301 18.5051 -380.256 18.4889 -385.21 18.4727C-385.371 18.036 -385.558 17.5831 -385.773 17.1625C-386.603 17.1787 -387.353 17.0654 -388.076 16.8066C-398.628 16.8066 -409.179 16.7743 -419.731 16.8228C-423.052 16.839 -424.016 15.6581 -424.498 14.0406C-425.248 14.0729 -425.944 13.9435 -426.587 13.7009C-427.417 13.8303 -428.22 13.8141 -429.024 13.6685C-429.774 13.895 -430.577 14.0082 -431.407 13.992C-432.05 15.0273 -431.327 16.564 -434.246 16.7581C-435.076 16.8713 -435.906 16.9846 -436.737 17.0816C-436.79 17.1625 -436.79 17.2434 -436.817 17.3404C-443.566 17.664 -450.315 17.9875 -456.635 15.6905C-457.974 16.1919 -459.233 16.0787 -460.465 15.5611C-463.036 15.9978 -465.606 16.1111 -468.231 15.642L-468.954 15.9817L-469.731 15.6743C-471.927 16.2566 -474.525 16.5316 -476.185 17.4537C-479.292 19.1845 -482.559 19.233 -486.228 18.6992C-492.227 19.5242 -498.199 19.5242 -504.198 18.6507C-505.912 18.6669 -507.653 18.683 -509.367 18.7154L-510.009 19.0551L-510.759 18.7963C-513.812 20.3815 -516.812 19.9771 -519.757 18.6992C-523.159 18.6992 -526.56 18.6992 -529.961 18.7154C-531.675 19.2977 -533.389 19.233 -535.076 18.6669C-537.567 18.9904 -539.817 19.0065 -542.388 18.3757C-546.512 17.3728 -550.85 16.5316 -555.483 17.2272C-556.287 18.9742 -558.376 19.0713 -560.84 18.7154C-563.812 19.4757 -566.812 19.4595 -569.811 18.7801C-572.221 19.9286 -574.605 19.8315 -576.962 18.7639L-577.926 19.0227L-578.81 18.6669C-581.38 19.1198 -583.979 19.1683 -586.549 18.7316L-587.192 19.0713L-587.942 18.7963C-591.852 20.5433 -595.708 20.8991 -599.511 18.6992C-601.118 18.7154 -602.725 18.7477 -604.358 18.7639C-608.108 21.4168 -611.884 19.8801 -615.687 18.7801L-616.57 19.0551L-617.374 18.6992C-620.802 19.1845 -624.257 19.1845 -627.685 18.6992L-628.515 19.0551L-629.425 18.7801C-634.38 20.9153 -638.129 19.6374 -641.504 17.2272C-642.468 17.7772 -643.432 17.8095 -644.45 17.2757C-646.94 19.4918 -649.351 18.1169 -651.761 17.2272C-658.697 17.9713 -665.633 17.9551 -672.569 17.2434C-676.72 20.6727 -676.72 20.6727 -685.21 18.7639C-686.174 19.3301 -687.139 19.3624 -688.129 18.7963C-689.281 19.3301 -690.433 19.8477 -691.584 20.3815C-691.477 21.9667 -691.209 23.5681 -687.834 23.6814C-682.746 23.8431 -677.658 23.7946 -672.569 23.9078C-665.365 24.0696 -658.162 24.2637 -650.958 24.5225C-649.083 24.5872 -647.931 25.2504 -648.038 26.5122C-648.145 27.8386 -648.44 29.2782 -651.011 29.4238C-656.501 29.7473 -662.018 29.8929 -667.508 29.9415C-669.115 29.9576 -671.124 29.6503 -672.275 29.0356C-679.452 25.1534 -687.085 26.2857 -694.637 28.2592C-701.868 30.1517 -709.259 30.7017 -716.972 29.9253C-718.633 29.7635 -721.016 29.7473 -721.766 29.1165C-726.961 24.7166 -731.112 28.3239 -735.558 29.6018C-740.593 31.8664 -745.547 31.2032 -750.448 29.6018C-750.475 29.6018 -750.475 29.6018 -750.502 29.5856C-750.663 29.5371 -750.85 29.4885 -751.011 29.4238C-752.618 28.9385 -754.225 28.4533 -755.805 27.9842C-755.832 27.9356 -755.885 27.8871 -755.912 27.8224C-755.831 27.321 -755.751 26.8033 -755.671 26.3019C-754.948 25.4769 -754.198 24.6681 -753.475 23.8431C-752.993 23.827 -752.538 23.7946 -752.056 23.7784C-747.449 23.5843 -742.843 23.5358 -738.209 23.4226C-737.459 22.5652 -736.362 21.9829 -735.13 21.5138C-732.077 23.7137 -727.256 24.3122 -722.811 22.6946C-720.936 22.0153 -719.355 21.4006 -717.133 21.7403C-716.731 22.3873 -716.625 23.277 -715.848 23.6167C-714.696 24.1343 -713.544 23.4387 -713.143 22.8079C-712.58 21.9182 -712.446 20.9315 -712.125 19.9933C-712.393 19.1036 -712.661 18.2301 -712.928 17.3404C-716.651 17.2919 -720.4 17.2596 -724.123 17.211C-726.319 18.8286 -728.542 18.958 -730.791 17.2272C-732.853 17.2434 -734.916 17.2434 -736.978 17.2595C-737.032 17.3404 -737.084 17.4375 -737.138 17.5184C-746.94 17.9389 -756.715 17.9551 -766.517 17.0978C-771.552 17.1625 -776.613 17.2434 -781.648 17.3081C-782.398 17.6478 -783.147 18.0036 -783.897 18.3433C-786.736 19.0065 -790.405 18.3919 -792.414 20.3653C-792.12 21.6432 -791.825 23.099 -789.254 23.2932C-785.478 23.5681 -781.648 23.552 -777.819 23.6652C-776.132 23.7137 -774.337 23.5681 -773.052 24.2637C-774.284 24.4578 -775.488 24.749 -776.613 25.1857C-777.176 25.396 -777.712 25.6548 -778.167 25.9298C-780.952 25.7195 -783.764 25.6548 -786.549 25.6548C-786.737 25.396 -786.978 25.1372 -787.138 24.8622C-788.397 23.4549 -790.647 23.7137 -792.682 23.649C-796.485 23.5358 -800.341 23.552 -804.117 23.277C-806.688 23.0829 -806.983 21.6432 -807.278 20.3491C-805.296 18.3757 -801.6 19.0065 -798.761 18.3272C-799.163 17.9389 -799.591 17.5507 -800.073 17.1949C-805.001 17.6478 -809.929 17.7934 -814.83 17.0331C-825.113 17.4698 -835.398 17.5022 -845.682 17.0169C-848.012 17.6316 -850.395 17.6316 -852.805 17.1787C-854.091 18.0198 -855.403 18.0198 -856.715 17.211L-857.679 17.4537L-858.536 17.0978C-861.107 17.0654 -863.678 17.0493 -866.276 17.0169C-867.722 17.5184 -869.222 17.5507 -870.775 17.1787C-871.124 17.4375 -871.311 17.7286 -871.418 18.036C-871.605 18.036 -871.792 18.0198 -871.953 18.0198C-875.756 17.9066 -879.693 18.408 -883.255 17.1787C-894.932 17.9389 -906.581 18.0522 -918.231 17.0978C-922.516 17.5992 -926.828 17.5993 -931.113 17.0816C-934.541 17.8419 -937.968 17.9551 -941.37 17.0654C-943.833 17.2757 -945.574 16.3375 -947.476 15.642C-953.608 16.3699 -959.715 16.3214 -965.848 15.6905C-966.598 16.5802 -967.642 17.211 -969.436 17.1787C-970.587 18.5051 -971.819 18.1007 -973.078 17.211L-973.989 17.4698L-974.792 17.114C-975.649 17.114 -976.533 17.1301 -977.39 17.1301C-979.505 17.8095 -981.648 17.8419 -983.817 17.211C-985.424 18.0845 -987.031 18.0683 -988.638 17.211C-990.165 17.6639 -991.583 17.664 -992.815 16.8713C-994.502 16.9684 -995.789 16.6125 -996.646 15.7067C-999.109 17.1948 -1002.19 17.4051 -1005.46 17.1787C-1006.72 18.2301 -1008.08 18.1654 -1009.47 17.2434C-1014.8 17.9228 -1020.13 17.9066 -1025.46 17.2434C-1026.88 17.9228 -1029.13 18.2786 -1030.04 17.6801C-1032.24 16.2081 -1035.61 16.7743 -1037.83 15.642C-1039.52 16.3213 -1041.24 16.2566 -1042.98 15.7228C-1045.33 18.0522 -1045.33 18.0522 -1048.41 16.564C-1049.06 16.2566 -1049.73 15.9655 -1050.37 15.6743C-1052.24 16.2728 -1054.09 16.2566 -1055.97 15.6905C-1058.7 17.7772 -1063.84 15.917 -1066.86 18.2786C-1068.15 19.2654 -1071.44 17.8742 -1073.69 17.211L-1073.8 17.2595C-1078.62 20.1227 -1083.36 19.2168 -1088.1 17.211C-1090.11 16.6934 -1092.15 16.1758 -1094.15 15.6581L-1094.42 15.6905C-1097.69 17.4698 -1102.03 16.5963 -1105.7 17.3243C-1109.45 19.3624 -1113.95 18.2301 -1118.12 18.3272C-1120.8 19.0874 -1124.42 18.2948 -1126.48 20.1389C-1119.97 21.5462 -1113.3 20.608 -1106.85 21.2226ZM-1133.34 40.1646C-1133.95 40.1646 -1134.57 40.1323 -1135.18 40.1161C-1114.7 40.0514 -1094.24 39.9543 -1073.75 39.9381C-1071.77 39.9381 -1069.81 39.9543 -1067.83 39.9543C-1089.68 40.019 -1111.51 40.1323 -1133.34 40.1646ZM-989.602 35.7001C-991.959 34.4384 -992.923 33.9692 -994.155 34.2604C-992.923 33.9692 -991.959 34.4222 -989.602 35.7001ZM-1006.13 32.6914C-1003.69 32.659 -1001.25 32.6266 -998.814 32.6428C-981.594 32.7722 -964.375 32.8531 -947.127 32.934C-947.529 32.9663 -947.958 32.9825 -948.359 33.0149C-967.615 32.9178 -986.871 32.8208 -1006.13 32.6914ZM-946.377 40.3264C-949.189 40.3425 -952.001 40.3264 -954.813 40.3102C-953.823 40.1161 -952.913 39.7279 -952.163 38.9838C-954.305 35.9912 -958.295 37.5926 -961.643 37.5926C-962.955 37.3015 -964.053 36.9294 -963.518 35.878C-957.599 35.8133 -951.653 35.7324 -945.735 35.6677C-945.28 35.7162 -944.825 35.7809 -944.396 35.8295C-945.815 35.8456 -947.234 35.8618 -948.654 35.878C-949.216 36.9133 -948.092 37.2853 -946.779 37.5926C-944.824 37.5926 -942.655 37.0588 -940.754 37.2044C-942.977 37.9 -942.28 38.7735 -940.486 39.1779C-939.629 39.372 -938.826 39.5014 -938.049 39.5985C-940.352 41.0705 -943.646 40.3102 -946.377 40.3264ZM3436.43 53.3641C3437.71 53.1215 3438.65 53.5582 3439 54.3994C3438.65 54.7876 3438.41 55.4185 3437.87 55.5155C3436.61 55.742 3435.49 55.3376 3435.38 54.5126C3435.33 54.1244 3435.92 53.4612 3436.43 53.3641ZM3413.1 55.0303C3413.5 54.4156 3414.68 53.6877 3415.7 53.5906C3417.57 53.3965 3419.56 53.348 3421.51 53.3803C3421 53.5097 3420.47 54.1406 3420.52 54.4964C3420.63 55.3376 3421.75 55.742 3423.01 55.4994C3423.52 55.4023 3423.76 54.7714 3424.13 54.3832C3423.92 53.8818 3423.49 53.5582 3422.9 53.3965C3423.04 53.3965 3423.14 53.3965 3423.28 53.3965C3424.3 53.445 3425.77 54.1082 3426.04 54.6582C3426.76 56.1626 3424.51 56.1626 3422.96 56.3243C3421.7 56.4537 3420.39 56.3567 3416.56 56.3567C3417.81 56.4052 3416.5 56.4537 3415.27 56.2758C3414.23 56.1302 3412.32 56.1626 3413.1 55.0303ZM1006.46 11.8245C999.069 11.3068 993.632 11.7921 987.981 10.8215C987.125 10.5951 986.348 10.3848 985.651 10.223C996.337 8.99368 996.471 9.02603 1006.46 11.8245ZM-422.516 18.4566C-424.685 18.8771 -426.747 19.0227 -428.542 18.4404C-426.533 18.4404 -424.525 18.4566 -422.516 18.4566ZM-604.68 28.5503C-603.234 28.4856 -602.484 29.0841 -602.939 29.9091C-603.1 30.2003 -604.278 30.5076 -604.867 30.4267C-605.376 30.362 -605.697 29.7797 -606.126 29.4238C-605.617 29.1165 -605.189 28.5827 -604.68 28.5503ZM-626.426 29.2297C-625.569 28.2106 -624.149 27.9033 -622.462 28.3562C-621.257 28.6797 -620.749 29.4076 -621.364 30.1356C-621.98 30.8958 -623.293 31.0252 -624.525 30.8311C-625.757 30.6208 -626.774 30.2164 -626.426 29.2297ZM-840.352 29.6341C-835.906 28.9871 -831.273 28.7606 -827.31 27.0783C-825.703 26.3989 -823.399 25.9137 -821.471 25.9622C-812.58 26.2048 -803.689 25.4122 -794.825 25.8651C-798.735 25.9622 -802.671 26.0592 -806.582 25.9622C-808.51 25.9137 -810.812 26.3828 -812.419 27.0783C-816.383 28.7768 -821.016 29.0033 -825.462 29.6341C-832.746 31.4782 -840.245 31.1708 -847.744 30.8311C-845.253 30.6047 -842.789 30.2488 -840.352 29.6341ZM-850.689 24.749C-850.288 24.7652 -849.939 24.8137 -849.645 24.8784C-849.939 24.7975 -850.261 24.7652 -850.689 24.749C-850.689 24.749 -850.931 24.6358 -851.118 24.5549L-850.689 24.749ZM-903.314 32.9987C-902.136 33.0149 -900.958 33.4516 -899.833 33.7751C-899.538 33.856 -899.431 34.1957 -899.216 34.406C-898.788 34.8751 -899.109 35.3765 -900.181 35.4251C-904.332 35.6354 -908.51 35.7324 -912.688 35.8618C-916.25 39.5661 -919.65 40.4881 -925.596 39.1455C-927.443 38.7411 -928.167 37.8029 -925.649 37.1074C-924.953 36.9133 -923.988 36.9133 -923.533 36.6059C-922.917 36.2015 -923.507 36.25 -924.739 36.25C-925.729 36.25 -926.748 36.153 -927.738 36.0236C-927.685 35.9589 -927.631 35.9104 -927.551 35.8618C-923.373 35.7162 -919.195 35.6192 -915.044 35.4251C-913.946 35.3765 -913.651 34.8751 -914.08 34.406C-914.268 34.1795 -914.375 33.856 -914.696 33.7751C-915.821 33.4678 -916.999 33.0149 -918.177 32.9987C-921.739 32.9502 -925.274 32.8369 -928.836 32.7561C-920.32 32.4164 -911.83 32.8855 -903.314 32.9987Z" fill="black"/>
</svg>
