<svg width="190" height="64" viewBox="0 0 190 64" fill="none" xmlns="http://www.w3.org/2000/svg">
<path d="M115.567 24L113 16C113 16 126.179 20.0477 141.233 22C156.261 23.9488 190 24 190 24C190 24 156.262 24.0498 141.233 26C126.185 27.9528 113 32 113 32L115.567 24Z" fill="#945EBA"/>
<path d="M74.4333 24L77 32C77 32 63.8206 27.9523 48.7667 26C33.7395 24.0512 0 24 0 24C0 24 33.7385 23.9502 48.7667 22C63.8149 20.0472 77 16 77 16L74.4333 24Z" fill="#945EBA"/>
<g opacity="0.3" filter="url(#filter0_d_613_245)">
<circle cx="95.1992" cy="24" r="24" fill="#6D17AB"/>
</g>
<g opacity="0.5" filter="url(#filter1_d_613_245)">
<path d="M113.199 24C113.199 33.9411 105.14 42 95.1992 42C85.2581 42 77.1992 33.9411 77.1992 24C77.1992 14.0589 85.2581 6 95.1992 6C105.14 6 113.199 14.0589 113.199 24Z" fill="#7323AD"/>
</g>
<g filter="url(#filter2_d_613_245)">
<circle cx="95.1992" cy="24" r="10" fill="white"/>
</g>
<defs>
<filter id="filter0_d_613_245" x="63.1992" y="0" width="64" height="64" filterUnits="userSpaceOnUse" color-interpolation-filters="sRGB">
<feFlood flood-opacity="0" result="BackgroundImageFix"/>
<feColorMatrix in="SourceAlpha" type="matrix" values="0 0 0 0 0 0 0 0 0 0 0 0 0 0 0 0 0 0 127 0" result="hardAlpha"/>
<feOffset dy="8"/>
<feGaussianBlur stdDeviation="4"/>
<feComposite in2="hardAlpha" operator="out"/>
<feColorMatrix type="matrix" values="0 0 0 0 0 0 0 0 0 0 0 0 0 0 0 0 0 0 0.6 0"/>
<feBlend mode="normal" in2="BackgroundImageFix" result="effect1_dropShadow_613_245"/>
<feBlend mode="normal" in="SourceGraphic" in2="effect1_dropShadow_613_245" result="shape"/>
</filter>
<filter id="filter1_d_613_245" x="69.1992" y="6" width="52" height="52" filterUnits="userSpaceOnUse" color-interpolation-filters="sRGB">
<feFlood flood-opacity="0" result="BackgroundImageFix"/>
<feColorMatrix in="SourceAlpha" type="matrix" values="0 0 0 0 0 0 0 0 0 0 0 0 0 0 0 0 0 0 127 0" result="hardAlpha"/>
<feOffset dy="8"/>
<feGaussianBlur stdDeviation="4"/>
<feComposite in2="hardAlpha" operator="out"/>
<feColorMatrix type="matrix" values="0 0 0 0 0 0 0 0 0 0 0 0 0 0 0 0 0 0 0.6 0"/>
<feBlend mode="normal" in2="BackgroundImageFix" result="effect1_dropShadow_613_245"/>
<feBlend mode="normal" in="SourceGraphic" in2="effect1_dropShadow_613_245" result="shape"/>
</filter>
<filter id="filter2_d_613_245" x="77.1992" y="14" width="36" height="36" filterUnits="userSpaceOnUse" color-interpolation-filters="sRGB">
<feFlood flood-opacity="0" result="BackgroundImageFix"/>
<feColorMatrix in="SourceAlpha" type="matrix" values="0 0 0 0 0 0 0 0 0 0 0 0 0 0 0 0 0 0 127 0" result="hardAlpha"/>
<feOffset dy="8"/>
<feGaussianBlur stdDeviation="4"/>
<feComposite in2="hardAlpha" operator="out"/>
<feColorMatrix type="matrix" values="0 0 0 0 0 0 0 0 0 0 0 0 0 0 0 0 0 0 0.6 0"/>
<feBlend mode="normal" in2="BackgroundImageFix" result="effect1_dropShadow_613_245"/>
<feBlend mode="normal" in="SourceGraphic" in2="effect1_dropShadow_613_245" result="shape"/>
</filter>
</defs>
</svg>
