<svg width="1919" height="47" viewBox="0 0 1919 47" fill="none" xmlns="http://www.w3.org/2000/svg">
<g clip-path="url(#clip0_159_338)">
<path d="M1148.89 65.5413C1134.85 66.4222 1120.88 64.7191 1106.85 64.6604C1078.72 64.5429 1050.6 65.6587 1022.47 66.246C964.225 67.4793 905.98 68.6539 847.792 70.0046C823.66 70.5331 799.704 68.2428 775.748 67.4206C753.436 66.6571 730.479 67.3618 707.991 69.2411C671.939 72.1775 635.712 73.5282 599.66 72.7061C565.899 71.9426 532.079 75.2313 498.317 70.8268C484.167 69.0062 469.664 69.7697 455.279 69.0649C413.767 66.9508 372.196 71.1791 330.626 67.0682C319.822 66.0111 308.02 68.0666 296.688 68.184C276.255 68.4777 255.704 68.7126 235.506 68.0078C222.119 67.538 210.787 69.5348 198.809 72.7648C197.165 73.8219 194.523 75.3488 193.642 73.587C192.409 71.003 196.108 72.2362 197.459 71.414C196.46 66.8333 192.233 68.9475 189.649 69.0062C164.167 69.4173 138.684 70.4157 113.143 70.7093C98.9338 70.8268 84.6071 68.8888 70.6916 73.1171C57.3631 77.1693 43.2714 72.5886 29.8255 75.9948C28.5338 76.3472 26.42 76.4059 25.6567 75.7599C20.7246 71.4728 15.4989 72.7061 10.3319 74.879C-4.58183 81.1628 -12.6846 71.1204 -22.0791 64.6017C-24.9561 62.37 -29.7708 59.0225 -20.7286 57.7893C-17.3231 57.3194 -19.613 55.5576 -20.8461 54.7941C-23.7818 52.7974 -22.2552 49.5087 -24.0754 47.2183C-23.7231 46.8659 -23.4295 46.5723 -23.0772 46.2199C-21.1396 41.1106 -15.0919 42.5201 -12.5084 43.1661C1.1723 46.5136 4.51909 35.4141 12.7393 31.0682C4.04936 33.1824 -5.58 30.3048 -12.9194 36.0601C-15.5616 32.7126 -11.5103 31.8317 -11.569 29.8349C-11.8038 29.4238 -12.0387 28.954 -12.2736 28.5429C-11.7451 28.7191 -11.2167 28.8953 -10.6883 29.0127C-7.98734 27.8382 -5.28642 26.6636 -2.5855 25.4891C-2.40936 21.6718 0.702572 19.264 3.05119 16.5038C3.4622 16.1514 3.87321 15.7403 4.28422 15.388C9.33376 16.9149 12.9154 14.2134 16.5558 11.6294C20.3136 23.2574 27.0659 29.0127 40.042 25.8415C40.5705 26.2526 41.1576 26.6636 41.6861 27.0747C50.9631 27.8969 55.7191 19.2052 64.7026 18.9116C68.1668 18.7942 71.6897 17.6783 75.3301 18.2069C76.0934 20.0862 72.864 22.0829 75.8585 24.1971C76.8567 21.9067 82.4347 19.9687 75.5062 18.0894C76.3283 12.5103 80.4384 12.6865 82.9631 16.1514C87.0145 21.7305 90.42 20.6734 95.6457 17.6783C100.578 14.8594 103.866 15.9165 101.4 22.3765C105.627 20.2623 108.974 18.6767 112.203 16.9736C115.844 15.0356 119.426 13.5674 121.657 18.3243C123.066 21.3194 127.117 20.7322 127.881 19.8512C134.046 12.2167 142.031 16.7974 149.312 17.0911C153.95 17.2672 158.178 16.9736 161.29 13.6261C161.348 13.5674 160.937 13.1563 160.644 12.9801C160.409 12.8039 160.115 12.7452 159.822 12.6278C159.822 10.8072 159.939 9.1041 162.581 8.4581C166.633 7.51846 166.457 11.1008 168.394 12.4516L168.336 12.3928C168.394 12.3928 168.394 12.3928 168.453 12.4516C169.686 10.8659 171.154 9.45647 173.444 10.6897C175.558 11.8056 174.09 13.2738 173.268 14.507C176.791 20.7322 180.901 26.1938 190.413 25.1367C190.237 24.0796 190.06 22.9638 189.884 21.9067C187.477 21.7305 185.128 25.078 183.191 22.8464C181.194 20.6147 184.893 19.4989 185.95 17.7371C187.242 17.5609 188.592 17.3847 189.884 17.2085C190.178 17.4434 190.471 17.6783 190.765 17.972C190.824 18.9703 190.941 19.91 191 20.9083C196.578 20.8496 202.978 14.8594 207.499 22.6114C209.26 17.2085 216.013 17.7958 219.418 17.5021C232.688 16.5038 245.958 9.69138 259.521 16.0927C263.514 15.153 268.035 17.326 271.734 14.5658C272.145 14.2134 272.556 13.8023 272.908 13.4499C282.831 14.2721 292.049 10.4548 301.914 10.0437C306.787 9.80883 311.602 9.28028 316.475 9.39774C322.875 10.1025 303.734 16.0927 318.002 14.8594C323.815 9.57392 326.046 13.9198 328.336 17.9132C328.805 17.6196 329.569 16.9149 329.803 17.0323C331.154 17.6783 330.215 18.3243 329.569 18.9116C332.387 20.6734 334.853 18.2656 337.554 18.3831C337.613 20.2036 337.671 22.0829 337.789 23.9034H337.848C339.55 21.9654 343.073 20.0274 337.789 18.2069C333.62 16.3863 336.145 11.8056 332.035 9.7501C339.022 7.16609 344.6 8.28192 350.648 11.1596C347.77 13.5087 344.776 12.8627 341.84 12.5103C343.66 15.0943 343.191 21.7893 347.418 19.5576C353.348 16.5038 361.334 19.2052 365.561 13.6261C366.442 12.5103 355.697 11.8643 364.915 9.80883C368.497 8.98665 375.249 7.22482 376.248 11.5707C378.068 19.6751 383.47 11.8643 386.112 14.0959C393.334 5.63917 402.611 8.81046 410.655 12.2167C412.945 13.215 405.194 15.2705 404.842 18.618C403.433 18.618 402.024 18.618 400.615 18.618C399.91 18.0307 399.147 17.5021 398.383 16.9149C399.088 17.5021 399.792 18.1481 400.497 18.7354C400.438 21.4369 397.033 20.0862 395.976 21.5543C399.851 23.3162 403.785 25.1367 408.541 23.2574C407.191 21.7305 402.963 22.1416 405.077 18.8529C414.354 18.618 423.103 11.9818 433.025 18.0894C436.196 20.0274 441.657 19.1465 446.002 17.7958C446.002 17.6783 445.943 17.6196 445.943 17.5021C446.002 17.6196 446.06 17.6783 446.119 17.7958L446.002 17.8545C451.873 19.9687 452.695 19.91 452.578 15.8578C452.46 11.3357 456.277 10.7485 459.154 9.80883C464.556 7.98828 463.382 11.9818 463.969 14.507C464.673 17.6783 467.844 16.2689 470.075 16.7387C472.776 17.326 477.18 15.9165 476.358 20.7322C474.361 21.6718 471.543 19.8512 469.84 22.2003C472.952 24.9018 474.479 21.9654 476.475 20.8496C480.35 15.2705 484.695 16.5625 489.158 20.2623C497.554 11.4532 495.088 22.494 497.906 24.1971C502.193 19.6751 508.123 22.3765 512.879 21.1433C527.147 17.4434 541.532 19.4989 555.859 18.9116C564.725 18.5592 572.945 14.9181 581.811 13.6849C593.26 12.0405 604.358 11.8056 615.866 13.0976C625.965 14.2134 636.358 13.9198 646.574 13.4499C651.917 13.215 655.264 13.3912 654.325 18.9703C654.97 19.1465 655.675 19.3227 656.262 19.5576C661.429 21.848 661.312 28.1318 664.424 30.0698C671.411 34.4744 666.009 23.2574 673.994 23.0225C684.622 22.7876 695.308 20.3211 706.112 19.4402C715.33 18.6767 726.78 16.9736 736.409 13.215C738.053 12.569 739.873 12.2754 742.222 13.6849C740.754 16.7387 736.996 17.8545 732.827 21.4956C740.343 19.0291 747.271 18.3831 751.029 15.0943C755.903 10.8659 758.427 13.1563 760.482 15.9165C763.066 19.264 764.005 19.1465 765.649 15.6816C766.002 14.9769 767.235 14.4483 768.174 14.0959C773.282 12.0405 779.154 11.1596 783.205 14.6245C788.079 18.7942 776.747 17.8545 779.448 22.6702C784.732 19.8512 790.016 16.9149 795.418 14.1547C797.238 13.215 799.939 11.8643 801.407 12.4516C816.673 18.0307 830.882 8.34064 845.855 10.4548C849.26 10.9247 852.959 10.9834 856.071 8.57555C859.007 6.28518 861.767 5.40426 862.237 10.4548C862.589 13.9198 865.29 12.2167 867.697 12.3928C881.026 13.3325 894.706 5.75663 907.741 13.5087L907.682 13.4499C926.471 16.0927 945.319 16.3863 964.284 15.5641C965.928 15.5054 968.159 15.799 969.275 16.7387C974.618 20.9083 977.965 22.8464 985.07 20.0862C999.455 14.5658 1013.84 19.4402 1028.05 19.0878C1041.32 18.7942 1054.53 18.8529 1067.56 16.445C1084.65 13.2738 1101.03 12.8039 1115.07 23.9622C1117.47 25.8415 1120.59 24.7844 1123.4 25.1367C1129.74 25.9589 1135.85 24.9018 1140.31 32.0079C1143.6 37.2933 1152.64 33.1824 1160.22 32.2428C1158.1 37.8219 1155.64 41.9915 1161.86 47.5707C1167.79 52.7974 1158.28 64.954 1148.89 65.5413ZM33.8769 33.065C29.0035 32.6539 24.0714 32.9475 19.1393 32.9475C25.2457 39.5837 12.0934 37.2346 14.442 42.755C21.7815 46.2199 28.3576 36.1188 36.1668 41.2281C36.5191 40.7583 37.2237 40.2297 37.165 39.7599C36.9888 37.1759 38.809 33.476 33.8769 33.065ZM70.3393 35.7077C69.8108 32.3602 66.6989 34.0046 64.409 33.711C59.3595 33.1237 55.9539 37.2933 51.4329 37.1759C47.5576 37.0584 47.5576 36.4124 45.5613 38.9964C52.3723 42.0503 59.1833 41.9915 66.053 39.1139C67.8732 38.3504 70.6916 38.1155 70.3393 35.7077ZM93.3558 28.3667C93.8842 28.3667 94.3539 27.8969 94.8824 27.662C94.5301 27.2509 94.1778 26.8398 93.8255 26.4287C93.2384 26.6636 92.4163 26.7811 92.1228 27.1922C91.0072 28.6604 92.6512 28.3667 93.3558 28.3667ZM77.9136 33.1824C81.0842 32.184 83.609 30.5984 84.1962 27.4271C81.554 28.8953 78.5595 30.0698 77.9136 33.1824ZM103.455 36.3537C93.9429 34.7093 87.6604 33.065 80.8494 38.5853C88.5998 39.8186 94.4127 38.0568 103.455 36.3537ZM109.796 30.7158C109.209 31.3031 108.681 31.9491 108.093 32.5364C107.741 32.8888 107.389 33.2999 106.978 33.6522C107.389 33.2999 107.8 32.9475 108.152 32.6539C108.739 31.9491 109.268 31.3619 109.796 30.7158ZM119.954 36.3537C121.07 36.2362 122.244 36.1188 123.359 35.9426C122.361 35.3553 121.422 34.4744 120.13 35.5902C119.954 35.7077 120.013 36.0601 119.954 36.3537ZM126.002 36.8235C125.297 36.5886 124.534 36.3537 123.829 36.1188C124.24 36.4124 124.71 36.7061 125.18 36.941C125.356 37.0584 125.708 36.8822 126.002 36.8235ZM133.224 27.2509C132.754 27.1335 132.284 26.9573 131.814 26.9573C131.58 26.9573 131.169 27.4271 131.227 27.4858C131.521 27.8382 131.873 28.1318 132.226 28.4842C132.578 28.0731 132.871 27.7207 133.224 27.2509ZM193.231 25.078C192.35 25.1367 191.47 25.1367 190.589 25.1955C191.47 25.4891 192.35 27.016 193.231 25.078ZM201.803 24.2558C201.275 24.0796 200.747 23.9034 200.218 23.786C200.042 23.786 199.807 24.0209 199.631 24.1384C200.159 24.3733 200.688 24.6082 201.275 24.7256C201.392 24.7256 201.627 24.432 201.803 24.2558ZM280.893 27.7207L280.013 27.8382L280.776 28.1318L280.893 27.7207ZM414.237 23.4924C416.409 23.6685 418.288 23.786 420.108 23.9622C418.405 22.8464 416.703 21.9067 414.237 23.4924ZM412.299 29.9524C412.123 30.4222 412.005 30.9508 411.829 31.4206C412.181 30.7746 412.592 30.1873 412.945 29.5413C412.769 29.6588 412.358 29.7762 412.299 29.9524ZM409.481 31.6555C406.662 29.7762 404.901 32.0666 402.552 32.7713C405.429 34.122 407.249 32.1253 409.481 31.6555ZM418.464 36.4711C415.293 35.5902 410.596 37.0584 411.712 31.7142C411.007 31.6555 410.361 31.6555 409.657 31.7142C408.893 33.2999 408.13 34.8855 407.249 36.7061C411.066 36.5886 414.765 36.5299 418.464 36.4711ZM420.343 24.1384C421.224 25.8415 420.049 28.2493 422.75 29.6C423.514 27.0747 421.576 25.724 420.343 24.1384ZM433.26 25.5478C433.026 25.7827 432.849 26.0176 432.615 26.3113C432.849 26.0764 433.084 25.8415 433.26 25.5478ZM441.246 24.2558L440.248 24.432L441.011 24.7256L441.246 24.2558ZM458.273 22.4353C457.862 22.6702 457.392 22.9051 456.981 23.14C456.747 23.3162 456.512 23.5511 456.277 23.7273C456.512 23.5511 456.805 23.3749 457.04 23.1987C457.451 22.9638 457.862 22.6702 458.273 22.4353ZM487.631 28.1318C489.04 28.0731 490.449 28.0731 491.859 28.0144C490.332 25.1955 488.982 26.8398 487.631 28.1318ZM533.37 31.3031C533.253 31.4206 533.488 31.7142 533.547 31.8904C533.781 31.7729 534.075 31.7142 534.31 31.5968C534.251 31.3619 534.192 31.1269 534.075 30.9508C533.84 31.0682 533.488 31.1269 533.37 31.3031ZM508.945 27.0747C509.708 26.6636 510.53 26.2526 511.293 25.7827C510.648 26.0176 510.002 26.1938 509.356 26.4875C509.18 26.5462 509.121 26.8398 508.945 27.0747ZM513.877 40.8757C513.877 40.4646 513.818 40.1123 513.818 39.7012C512.409 39.7599 511 39.7599 509.591 39.8186C511 40.1123 512.468 40.5234 513.877 40.8757ZM540.534 38.2917C537.598 37.9981 535.426 39.1139 533.136 40.3472C533.429 40.7583 533.723 41.463 534.016 41.463C536.6 41.4043 539.712 42.0503 540.534 38.2917ZM563.668 38.9377C557.972 42.4614 552.923 37.5282 547.462 37.9393C552.747 39.9948 557.855 42.6963 563.668 38.9377ZM567.249 31.3619C566.016 30.4809 565.136 29.4826 564.725 29.6C563.492 29.8937 561.965 30.4809 561.437 31.3619C560.556 32.83 562.082 33.476 563.433 33.1824C564.607 33.0062 565.664 32.184 567.249 31.3619ZM576.292 38.4679L575.411 38.2917L575.587 38.7615L576.292 38.4679ZM634.185 34.4744C633.715 34.768 632.248 35.4141 632.306 35.7077C632.6 36.7648 633.128 38.0568 634.126 38.5853C635.418 39.2901 635.418 37.9981 635.77 37.2346C636.416 35.9426 636.71 34.9442 634.185 34.4744ZM649.158 29.7175C649.04 29.5413 648.688 29.4826 648.453 29.3651C648.394 29.6 648.159 29.8349 648.277 30.0111C648.394 30.1873 648.747 30.3048 648.981 30.4222C649.04 30.1873 649.275 29.8937 649.158 29.7175ZM651.741 19.8512C652.446 19.6163 653.092 19.3227 653.796 19.0878C653.268 19.1465 652.798 19.264 652.27 19.3814C652.035 19.4402 651.917 19.6751 651.741 19.8512ZM669.826 37.4108C665.833 36.4124 661.958 35.003 657.906 34.4744C652.328 33.7697 652.27 36.295 654.853 39.6424L654.912 39.5837C654.148 36.8235 654.912 35.1791 658.611 35.9426C662.31 36.7061 665.833 38.4092 669.826 37.4108ZM677.459 34.5919C677.224 34.2395 677.048 33.8284 676.754 33.476C676.695 33.4173 676.167 33.6522 675.873 33.7697C676.049 34.0046 676.167 34.357 676.402 34.4744C676.695 34.6506 677.106 34.5919 677.459 34.5919ZM684.798 27.7207C683.389 27.7795 682.038 27.8382 680.629 27.8382C682.097 29.4238 683.506 29.8937 684.798 27.7207ZM723.081 19.7925C722.376 19.7925 721.73 20.0274 721.026 20.1449C721.202 20.2623 721.319 20.556 721.495 20.556C722.2 20.556 722.963 20.6734 723.609 20.4973C724.431 20.2036 724.255 19.7925 723.081 19.7925ZM737.055 27.5446C736.233 27.8382 735.469 28.1906 734.647 28.4842C734.295 28.7191 733.943 29.0127 733.532 29.2477C733.943 29.0127 734.295 28.7778 734.706 28.5429C735.528 28.1906 736.292 27.8969 737.055 27.5446ZM758.486 28.1906C757.781 27.662 756.901 26.6636 755.785 26.3113C754.611 25.9589 753.906 26.8986 754.376 27.8382C754.728 28.5429 755.609 29.2477 756.431 29.6588C757.429 30.1286 758.31 29.8349 758.486 28.1906ZM774.926 26.6636C774.457 25.3716 773.4 24.6669 771.932 25.6653C770.992 26.2526 768.644 25.9589 769.348 27.5446C769.701 28.3667 771.521 28.954 772.754 29.1302C774.633 29.4238 774.926 28.0731 774.926 26.6636ZM784.967 31.4793C784.673 31.3619 784.38 31.1857 784.086 31.0682C783.969 31.3031 783.675 31.6555 783.734 31.7729C783.851 31.9491 784.262 32.0666 784.556 32.184C784.732 31.9491 784.849 31.7142 784.967 31.4793ZM794.009 33.065C793.07 33.0062 792.189 33.0062 791.249 32.9475C792.189 33.0062 792.952 34.8855 794.009 33.065ZM849.495 37.6457C849.084 37.2346 848.556 36.8822 848.086 36.5299C847.91 36.7648 847.558 37.1759 847.616 37.1759C848.027 37.587 848.556 37.8806 849.026 38.233C849.202 38.0568 849.554 37.7044 849.495 37.6457ZM855.836 22.1416C845.972 19.4989 836.871 11.7468 825.657 19.0291C829.473 19.5576 836.284 16.3276 834.288 24.3733C834.17 24.9018 836.989 26.0176 838.457 26.8398C841.98 18.9116 850.317 24.432 855.836 22.1416ZM862.765 20.9671C865.172 22.4353 863.646 24.1971 862.648 25.7827C864.057 25.7827 865.466 25.724 866.875 25.724C867.462 23.786 869.224 22.7876 871.044 21.9067C865.877 16.3276 860.945 17.9132 856.13 22.1416C858.361 21.6718 860.358 19.4402 862.765 20.9671ZM875.506 37.587C871.631 37.6457 867.756 37.7632 863.881 37.8219C867.756 39.2313 871.631 38.1155 875.506 37.587ZM881.671 25.4891C881.26 24.432 880.438 22.6702 878.912 23.8447C875.271 26.7811 871.103 25.5478 867.051 25.6653C870.809 28.8366 875.448 27.016 879.734 27.2509C881.73 27.4271 882.259 27.0747 881.671 25.4891ZM882.552 16.68C881.965 16.7387 881.437 16.7387 880.849 16.7974C881.084 16.9149 881.319 17.0911 881.554 17.1498C881.848 17.2085 882.141 17.1498 882.435 17.0911C882.493 17.0911 882.552 16.7974 882.552 16.68ZM894.354 28.1318C893.004 26.37 891.653 24.6082 890.303 22.7876C889.774 25.1955 887.015 27.9557 891.242 28.5429C892.24 28.6604 893.297 28.2493 894.354 28.1318ZM931.345 27.9557C931.697 24.2558 929.348 23.0813 925.297 23.7273C929.231 23.1987 927.235 28.7778 931.345 27.9557ZM942.677 24.6082C941.914 24.1384 940.974 23.1987 940.504 23.3162C939.682 23.6098 938.802 24.4907 938.567 25.2542C938.215 26.37 939.095 26.7811 940.681 26.3113C941.209 25.9002 941.972 25.2542 942.677 24.6082ZM948.079 31.5968C947.726 31.3031 947.315 31.0095 946.904 30.7158C946.728 30.9508 946.552 31.1269 946.376 31.3619C946.787 31.6555 947.139 31.8904 947.55 32.184C947.785 32.0079 948.137 31.6555 948.079 31.5968ZM955.712 24.5495C955.594 24.3145 955.477 23.9034 955.359 23.8447C954.89 23.8447 954.42 23.9622 953.892 24.0209C954.244 24.3145 954.537 24.6082 954.948 24.8431C955.125 24.9605 955.477 24.6669 955.712 24.5495Z" fill="black"/>
<path d="M159.763 12.6278C159.704 12.569 159.704 12.569 159.646 12.5103L159.763 12.6278Z" fill="black"/>
<path d="M673.877 18.5592C673.818 18.5005 673.759 18.5005 673.701 18.5005L673.877 18.5592Z" fill="black"/>
<path d="M687.499 17.7371C689.143 17.2085 688.086 15.3292 686.912 14.8594C681.921 12.9801 678.339 15.8578 674.581 17.9132C674.288 18.0894 674.17 18.3243 673.936 18.5592C678.633 21.5543 683.154 19.2052 687.499 17.7371Z" fill="black"/>
<path d="M513.231 18.2656C516.813 17.5609 521.51 18.0307 521.803 11.3945C517.517 13.5087 513.055 12.7452 511.352 16.5625C511.176 16.9149 512.703 18.3243 513.231 18.2656Z" fill="black"/>
<path d="M-24.0754 34.8268C-21.0809 34.5331 -23.2534 31.3031 -22.0204 29.7175C-24.1341 29.7762 -26.2479 29.8349 -28.4204 29.8937C-27.4809 31.9491 -27.4809 35.1791 -24.0754 34.8268Z" fill="black"/>
<path d="M-28.4204 29.8937C-28.4204 29.8937 -28.4204 29.8349 -28.4791 29.8349C-26.3653 28.3667 -24.2516 28.308 -22.0204 29.7175C-22.0204 29.7175 -22.0204 29.7762 -22.0791 29.7762C-22.0204 29.7762 -21.9616 29.7762 -21.9029 29.7762L-21.9616 29.6588C-16.2075 30.4809 -15.5029 26.4287 -13.8002 23.3162C-18.2626 22.7289 -18.4387 14.3309 -23.136 17.4434C-30.769 22.4353 -43.7451 20.2623 -47.3268 30.5984C-40.5158 34.4157 -35.0552 24.1384 -28.4204 29.7762L-28.5965 29.8937C-28.5378 29.8937 -28.4791 29.8937 -28.4204 29.8937Z" fill="black"/>
<path d="M185.774 17.7958H185.833C185.833 17.7371 185.892 17.7371 185.892 17.6783L185.774 17.7958Z" fill="black"/>
<path d="M673.759 18.5005C673.759 18.5592 673.701 18.5592 673.701 18.618C673.759 18.618 673.818 18.618 673.877 18.618L673.759 18.5005Z" fill="black"/>
<path d="M673.642 18.618C671 18.5005 667.888 17.2085 666.596 20.6734C666.42 21.0845 666.948 22.0242 667.359 22.1416C671.117 23.2574 672.292 20.7322 673.642 18.618Z" fill="black"/>
<path d="M-4.93412 21.7305C-4.75798 19.91 -5.46257 19.2052 -6.75431 19.5576C-7.63504 19.7925 -8.63321 20.556 -8.92678 21.3194C-9.10293 21.848 -8.2222 22.6702 -7.81119 23.3749C-6.69559 22.7289 -5.63871 22.1416 -4.93412 21.7305Z" fill="black"/>
<path d="M-25.2497 43.0486C-26.1305 43.1074 -27.4222 44.6343 -27.5396 45.5739C-27.7745 47.923 -25.6607 47.3358 -24.0754 47.1596C-23.7231 46.8072 -23.4295 46.5136 -23.0772 46.1612C-23.4295 44.9279 -22.9011 42.9312 -25.2497 43.0486Z" fill="black"/>
<path d="M-42.1598 48.6865C-41.6901 49.0976 -39.9873 49.215 -39.5763 48.8627C-38.3433 47.6881 -39.5176 46.6897 -40.3396 45.8088C-40.8094 45.4565 -41.2204 45.0454 -41.6901 44.693C-42.2772 45.985 -43.6864 47.3358 -42.1598 48.6865Z" fill="black"/>
<path d="M-47.9727 40.9344C-47.4442 41.1694 -46.6222 41.8154 -46.3873 41.6392C-45.6827 41.2281 -45.213 40.5233 -44.6846 39.9948C-45.213 39.7012 -45.7415 39.4663 -46.6222 38.9964C-47.0919 39.6424 -47.5029 40.2884 -47.9727 40.9344Z" fill="black"/>
<path d="M542.178 17.1498C543.822 15.9752 543.352 14.6245 541.826 13.4499C541.532 13.6849 541.18 13.9198 540.886 14.2134C540.358 15.2118 539.888 16.2101 539.359 17.2085C540.358 17.2085 541.591 17.5609 542.178 17.1498Z" fill="black"/>
<path d="M453.4 7.34227C453.106 6.81373 452.989 6.05027 452.578 5.87409C452.108 5.75663 451.403 6.22645 450.816 6.40263C451.051 6.87245 451.169 7.69464 451.521 7.75337C452.108 7.92955 452.754 7.51846 453.4 7.34227Z" fill="black"/>
<path d="M124.358 15.2118C125.708 15.0943 127 14.4483 130.464 13.215C125.826 11.923 124.827 11.3357 124.24 11.5707C123.477 11.8643 122.714 12.8627 122.714 13.5674C122.714 14.1547 123.829 15.2705 124.358 15.2118Z" fill="black"/>
<path d="M13.9723 9.16283C14.3833 8.81046 14.5595 8.16446 14.7943 7.63591C14.2072 7.45973 13.62 7.28355 13.0328 7.10736C12.8567 7.63591 12.4457 8.22319 12.5044 8.69301C12.5631 8.92792 13.7962 9.33901 13.9723 9.16283Z" fill="black"/>
<path d="M562.493 12.0405C562.493 11.6881 561.73 11.277 561.319 10.8659C560.732 11.1596 559.91 11.3945 559.675 11.8643C559.499 12.1579 559.969 13.0976 560.321 13.215C561.437 13.5674 562.493 13.215 562.493 12.0405Z" fill="black"/>
<path d="M43.4475 23.0813C40.8053 21.4956 40.5117 24.2558 39.9833 25.8415C40.5117 26.2526 41.0989 26.6636 41.6273 27.0747C42.7429 25.8415 45.8549 24.5495 43.4475 23.0813Z" fill="black"/>
<path d="M540.886 14.2134C541.18 13.9785 541.532 13.7436 541.826 13.4499C541.414 12.0992 541.826 10.1612 539.242 10.1612C538.714 10.1612 537.774 10.631 537.715 10.9834C537.539 12.9214 539.536 13.3325 540.886 14.2134Z" fill="black"/>
<path d="M-39.1066 42.5788C-41.5139 41.1106 -41.2791 43.4597 -41.6901 44.693C-41.2204 45.0454 -40.8094 45.4565 -40.3396 45.8088C-38.402 45.1041 -37.4038 43.5185 -39.1066 42.5788Z" fill="black"/>
<path d="M325.928 10.6897C326.398 10.6897 326.868 10.0437 327.337 9.69138C326.926 9.16283 326.692 8.4581 326.163 8.28192C325.811 8.10573 324.695 8.51683 324.578 8.86919C324.167 9.80883 324.637 10.6897 325.928 10.6897Z" fill="black"/>
<path d="M-7.51761 39.2901C-8.69193 39.1139 -9.63137 38.8203 -10.5708 38.879C-10.9818 38.9377 -11.3341 39.6424 -11.6864 40.0535C-10.747 40.2884 -9.86623 40.6408 -8.92678 40.6995C-8.57449 40.6995 -8.2222 39.9361 -7.51761 39.2901Z" fill="black"/>
<path d="M550.809 11.1008C550.515 10.631 550.163 10.1025 549.87 9.63265C549.282 9.86756 548.695 10.0437 548.108 10.2787C548.402 10.7485 548.578 11.5707 548.989 11.6881C549.517 11.8056 550.222 11.3357 550.809 11.1008Z" fill="black"/>
<path d="M445.238 16.5625C445.473 16.8561 445.649 17.2085 445.884 17.5021C445.826 17.326 445.826 17.1498 445.767 17.0323C445.649 16.8561 445.414 16.68 445.238 16.5625Z" fill="black"/>
<path d="M47.5576 17.8545L46.6769 17.5021L46.7356 18.2069L47.5576 17.8545Z" fill="black"/>
<path d="M184.189 15.9165C184.717 16.445 185.246 16.9736 185.774 17.5021C185.657 16.7974 185.539 16.0927 185.422 15.3292C184.952 15.5054 184.6 15.6816 184.189 15.9165Z" fill="black"/>
<path d="M185.774 17.7958L185.892 17.6783C185.833 17.6196 185.774 17.5609 185.715 17.5021C185.774 17.5609 185.774 17.6783 185.774 17.7958Z" fill="black"/>
<path d="M224.879 72.1775C225.231 72.5299 225.701 72.9997 226.112 73.0584C226.523 73.0584 226.934 72.5886 227.521 72.1775C226.523 71.8839 225.994 71.649 225.348 71.5315C225.231 71.5315 224.82 72.1188 224.879 72.1775Z" fill="black"/>
<path d="M183.249 77.9328C184.013 77.3455 184.717 76.6995 185.422 76.1123L185.304 75.9948C184.6 76.6408 183.895 77.2868 183.249 77.9328Z" fill="black"/>
<path d="M183.249 77.9915V77.9328L182.662 78.4026L183.249 77.9915Z" fill="black"/>
<path d="M271.792 14.5658C272.203 14.2134 272.615 13.8023 272.967 13.4499C271.616 13.0976 271.323 13.5087 271.792 14.5658Z" fill="black"/>
<path d="M3.05119 16.5038C3.4622 16.1514 3.87321 15.7403 4.28422 15.388C2.87505 14.9769 2.52275 15.388 3.05119 16.5038Z" fill="black"/>
<path d="M436.079 14.8594L436.02 15.388L436.666 15.2118L436.079 14.8594Z" fill="black"/>
<path d="M189.826 17.2672C190.119 17.5021 190.413 17.7371 190.706 18.0307C191.176 17.0323 190.882 16.7974 189.826 17.2672Z" fill="black"/>
<path d="M-33.8222 38.7028L-33.1176 38.4092L-33.7635 38.1155L-33.8222 38.7028Z" fill="black"/>
<path d="M-33.8222 42.2852L-33.235 42.3439L-33.4699 41.8154L-33.8222 42.2852Z" fill="black"/>
<path d="M31.1173 34.1808C29.8255 34.0633 28.1228 34.2982 28.8273 36.0601C29.1209 36.7061 30.4127 36.9997 30.765 37.1759C32.6439 37.2933 33.4659 36.5886 33.1723 35.649C32.9961 35.003 31.8806 34.2395 31.1173 34.1808Z" fill="black"/>
<path d="M1965.03 59.6858C1951 60.5667 1937.03 58.8636 1922.99 58.8049C1894.87 58.6875 1866.74 59.8033 1838.62 60.3906C1780.37 61.6238 1722.13 62.7984 1663.94 64.1491C1639.81 64.6777 1615.85 62.3873 1591.89 61.5651C1569.58 60.8016 1546.63 61.5064 1524.14 63.3857C1488.09 66.322 1451.86 67.6728 1415.81 66.8506C1382.05 66.0871 1348.23 69.3759 1314.46 64.9713C1300.31 63.1507 1285.81 63.9142 1271.43 63.2095C1229.91 61.0953 1188.34 65.3237 1146.77 61.2127C1135.97 60.1556 1124.17 62.2111 1112.83 62.3286C1092.4 62.6222 1071.85 62.8571 1051.65 62.1524C1038.27 61.6826 1026.93 63.6793 1014.96 66.9093C1013.31 67.9664 1010.67 69.4933 1009.79 67.7315C1008.56 65.1475 1012.25 66.3808 1013.6 65.5586C1012.61 60.9778 1008.38 63.092 1005.8 63.1507C980.313 63.5618 954.831 64.5602 929.289 64.8539C915.08 64.9713 900.754 63.0333 886.838 67.2617C873.51 71.3139 859.418 66.7331 845.972 70.1393C844.68 70.4917 842.566 70.5504 841.803 69.9044C836.871 65.6173 831.645 66.8506 826.478 69.0235C811.565 75.3074 803.462 65.2649 794.067 58.7462C791.19 56.5145 786.376 53.1671 795.418 51.9338C798.823 51.464 796.533 49.7021 795.3 48.9387C792.365 46.9419 793.891 43.6532 792.071 41.3628C792.423 41.0105 792.717 40.7168 793.069 40.3645C795.007 35.2552 801.055 36.6646 803.638 37.3106C817.319 40.6581 820.666 29.5586 828.886 25.2127C820.196 27.3269 810.566 24.4493 803.227 30.2046C800.585 26.8571 804.636 25.9762 804.577 23.9795C804.343 23.5684 804.108 23.0986 803.873 22.6875C804.401 22.8636 804.93 23.0398 805.458 23.1573C808.159 21.9827 810.86 20.8082 813.561 19.6336C813.737 15.8163 816.849 13.4085 819.198 10.6483C819.609 10.2959 820.02 9.88485 820.431 9.53248C825.48 11.0594 829.062 8.35793 832.702 5.77392C836.46 17.402 843.212 23.1573 856.188 19.986C856.717 20.3971 857.304 20.8082 857.833 21.2193C867.11 22.0415 871.866 13.3498 880.849 13.0561C884.313 12.9387 887.836 11.8229 891.477 12.3514C892.24 14.2307 889.011 16.2274 892.005 18.3416C893.003 16.0512 898.581 14.1132 891.653 12.234C892.475 6.65483 896.585 6.83102 899.11 10.2959C903.161 15.8751 906.566 14.818 911.792 11.8229C916.724 9.00393 920.012 10.061 917.546 16.5211C921.774 14.4069 925.121 12.8212 928.35 11.1181C931.99 9.18012 935.572 7.71193 937.803 12.4689C939.212 15.464 943.264 14.8767 944.027 13.9958C950.192 6.3612 958.177 10.9419 965.458 11.2356C970.097 11.4118 974.324 11.1181 977.436 7.77066C977.495 7.71193 977.084 7.30084 976.79 7.12465C976.555 6.94847 976.262 6.88974 975.968 6.77229C975.968 4.95173 976.086 3.24863 978.728 2.60263C982.779 1.66299 982.603 5.24537 984.541 6.5961L984.482 6.53738C984.541 6.53738 984.541 6.53738 984.6 6.5961C985.833 5.01046 987.3 3.601 989.59 4.83428C991.704 5.9501 990.236 7.41829 989.414 8.65157C992.937 14.8767 997.047 20.3384 1006.56 19.2813C1006.38 18.2242 1006.21 17.1083 1006.03 16.0512C1003.62 15.8751 1001.27 19.2225 999.337 16.9909C997.341 14.7592 1001.04 13.6434 1002.1 11.8816C1003.39 11.7054 1004.74 11.5292 1006.03 11.353C1006.32 11.5879 1006.62 11.8229 1006.91 12.1165C1006.97 13.1149 1007.09 14.0545 1007.15 15.0529C1012.72 14.9941 1019.12 9.00393 1023.65 16.756C1025.41 11.353 1032.16 11.9403 1035.56 11.6467C1048.83 10.6483 1062.1 3.83591 1075.67 10.2372C1079.66 9.29757 1084.18 11.4705 1087.88 8.7103C1088.29 8.35793 1088.7 7.94684 1089.05 7.59447C1098.98 8.41666 1108.2 4.59937 1118.06 4.18827C1122.93 3.95336 1127.75 3.42482 1132.62 3.54227C1139.02 4.247 1119.88 10.2372 1134.15 9.00393C1139.96 3.71845 1142.19 8.06429 1144.48 12.0578C1144.95 11.7641 1145.72 11.0594 1145.95 11.1769C1147.3 11.8229 1146.36 12.4689 1145.72 13.0561C1148.53 14.818 1151 12.4101 1153.7 12.5276C1153.76 14.3481 1153.82 16.2274 1153.94 18.048H1153.99C1155.7 16.11 1159.22 14.172 1153.94 12.3514C1149.77 10.5309 1152.29 5.9501 1148.18 3.89464C1155.17 1.31062 1160.75 2.42645 1166.79 5.3041C1163.92 7.6532 1160.92 7.0072 1157.99 6.65483C1159.81 9.23884 1159.34 15.9338 1163.56 13.7021C1169.49 10.6483 1177.48 13.3498 1181.71 7.77066C1182.59 6.65483 1171.84 6.00883 1181.06 3.95336C1184.64 3.13118 1191.4 1.36935 1192.39 5.71519C1194.21 13.8196 1199.62 6.00883 1202.26 8.24048C1209.48 -0.216294 1218.76 2.95499 1226.8 6.36119C1229.09 7.35956 1221.34 9.41503 1220.99 12.7625C1219.58 12.7625 1218.17 12.7625 1216.76 12.7625C1216.06 12.1752 1215.29 11.6467 1214.53 11.0594C1215.23 11.6467 1215.94 12.2927 1216.64 12.88C1216.58 15.5814 1213.18 14.2307 1212.12 15.6989C1216 17.4607 1219.93 19.2813 1224.69 17.402C1223.34 15.8751 1219.11 16.2862 1221.22 12.9974C1230.5 12.7625 1239.25 6.12628 1249.17 12.234C1252.34 14.172 1257.8 13.291 1262.15 11.9403C1262.15 11.8229 1262.09 11.7641 1262.09 11.6467C1262.15 11.7641 1262.21 11.8229 1262.27 11.9403L1262.15 11.999C1268.02 14.1132 1268.84 14.0545 1268.72 10.0023C1268.61 5.48028 1272.42 4.893 1275.3 3.95336C1280.7 2.13281 1279.53 6.12628 1280.12 8.65157C1280.82 11.8229 1283.99 10.4134 1286.22 10.8832C1288.92 11.4705 1293.33 10.061 1292.5 14.8767C1290.51 15.8163 1287.69 13.9958 1285.99 16.3449C1289.1 19.0463 1290.63 16.11 1292.62 14.9941C1296.5 9.41503 1300.84 10.707 1305.3 14.4069C1313.7 5.59774 1311.23 16.6385 1314.05 18.3416C1318.34 13.8196 1324.27 16.5211 1329.03 15.2878C1343.29 11.5879 1357.68 13.6434 1372 13.0561C1380.87 12.7038 1389.09 9.06266 1397.96 7.82938C1409.41 6.18501 1420.5 5.9501 1432.01 7.24211C1442.11 8.35793 1452.5 8.06429 1462.72 7.59447C1468.06 7.35956 1471.41 7.53575 1470.47 13.1149C1471.12 13.291 1471.82 13.4672 1472.41 13.7021C1477.58 15.9925 1477.46 22.2764 1480.57 24.2144C1487.56 28.6189 1482.16 17.402 1490.14 17.1671C1500.77 16.9322 1511.45 14.4656 1522.26 13.5847C1531.48 12.8212 1542.93 11.1181 1552.56 7.35956C1554.2 6.71356 1556.02 6.41992 1558.37 7.82938C1556.9 10.8832 1553.14 11.999 1548.97 15.6402C1556.49 13.1736 1563.42 12.5276 1567.18 9.23885C1572.05 5.01046 1574.57 7.30084 1576.63 10.061C1579.21 13.4085 1580.15 13.291 1581.8 9.82612C1582.15 9.12139 1583.38 8.59284 1584.32 8.24048C1589.43 6.18501 1595.3 5.3041 1599.35 8.76902C1604.23 12.9387 1592.89 11.999 1595.59 16.8147C1600.88 13.9958 1606.16 11.0594 1611.56 8.2992C1613.38 7.35956 1616.09 6.00883 1617.55 6.5961C1632.82 12.1752 1647.03 2.48517 1662 4.59937C1665.41 5.06919 1669.11 5.12791 1672.22 2.72008C1675.15 0.429709 1677.91 -0.451204 1678.38 4.59937C1678.74 8.06429 1681.44 6.36119 1683.84 6.53738C1697.17 7.47702 1710.85 -0.098839 1723.89 7.6532L1723.83 7.59447C1742.62 10.2372 1761.47 10.5309 1780.43 9.70867C1782.07 9.64994 1784.31 9.94358 1785.42 10.8832C1790.76 15.0529 1794.11 16.9909 1801.22 14.2307C1815.6 8.7103 1829.99 13.5847 1844.2 13.2323C1857.47 12.9387 1870.68 12.9974 1883.71 10.5896C1900.8 7.41829 1917.18 6.94847 1931.21 18.1067C1933.62 19.986 1936.73 18.9289 1939.55 19.2813C1945.89 20.1034 1952 19.0463 1956.46 26.1524C1959.75 31.4379 1968.79 27.3269 1976.36 26.3873C1974.25 31.9664 1971.78 36.1361 1978.01 41.7152C1983.94 46.9419 1974.43 59.0985 1965.03 59.6858ZM850.023 27.2095C845.15 26.7984 840.218 27.092 835.286 27.092C841.392 33.7282 828.24 31.3791 830.589 36.8995C837.928 40.3645 844.504 30.2633 852.313 35.3726C852.666 34.9028 853.37 34.3742 853.311 33.9044C853.135 31.3204 854.955 27.6206 850.023 27.2095ZM886.486 29.8522C885.957 26.5047 882.845 28.1491 880.555 27.8555C875.506 27.2682 872.1 31.4379 867.579 31.3204C863.704 31.203 863.704 30.557 861.708 33.141C868.519 36.1948 875.33 36.1361 882.2 33.2584C884.02 32.495 886.838 32.2601 886.486 29.8522ZM909.502 22.5113C910.031 22.5113 910.5 22.0415 911.029 21.8065C910.677 21.3955 910.324 20.9844 909.972 20.5733C909.385 20.8082 908.563 20.9256 908.269 21.3367C907.154 22.8049 908.798 22.5113 909.502 22.5113ZM894.06 27.3269C897.231 26.3286 899.755 24.7429 900.343 21.5716C897.7 23.0398 894.706 24.2144 894.06 27.3269ZM919.601 30.4982C910.089 28.8539 903.807 27.2095 896.996 32.7299C904.746 33.9632 910.559 32.2013 919.601 30.4982ZM925.943 24.8604C925.355 25.4477 924.827 26.0937 924.24 26.6809C923.888 27.0333 923.535 27.4444 923.124 27.7968C923.535 27.4444 923.946 27.092 924.299 26.7984C924.886 26.0937 925.414 25.5064 925.943 24.8604ZM936.1 30.4982C937.216 30.3808 938.39 30.2633 939.506 30.0871C938.508 29.4999 937.568 28.6189 936.277 29.7348C936.1 29.8522 936.159 30.2046 936.1 30.4982ZM942.148 30.968C941.444 30.7331 940.68 30.4982 939.976 30.2633C940.387 30.557 940.856 30.8506 941.326 31.0855C941.502 31.203 941.855 31.0268 942.148 30.968ZM949.37 21.3955C948.9 21.278 948.431 21.1018 947.961 21.1018C947.726 21.1018 947.315 21.5716 947.374 21.6304C947.667 21.9827 948.02 22.2764 948.372 22.6287C948.724 22.2176 949.018 21.8653 949.37 21.3955ZM1009.38 19.2225C1008.5 19.2813 1007.62 19.2813 1006.74 19.34C1007.62 19.6336 1008.5 21.1605 1009.38 19.2225ZM1017.95 18.4003C1017.42 18.2242 1016.89 18.048 1016.36 17.9305C1016.19 17.9305 1015.95 18.1654 1015.78 18.2829C1016.31 18.5178 1016.83 18.7527 1017.42 18.8702C1017.54 18.8702 1017.77 18.5765 1017.95 18.4003ZM1097.04 21.8653L1096.16 21.9827L1096.92 22.2764L1097.04 21.8653ZM1230.38 17.6369C1232.56 17.8131 1234.43 17.9305 1236.25 18.1067C1234.55 16.9909 1232.85 16.0512 1230.38 17.6369ZM1228.45 24.0969C1228.27 24.5667 1228.15 25.0953 1227.98 25.5651C1228.33 24.9191 1228.74 24.3318 1229.09 23.6858C1228.92 23.8033 1228.5 23.9207 1228.45 24.0969ZM1225.63 25.8C1222.81 23.9207 1221.05 26.2111 1218.7 26.9158C1221.58 28.2666 1223.4 26.2698 1225.63 25.8ZM1234.61 30.6157C1231.44 29.7348 1226.74 31.203 1227.86 25.8587C1227.15 25.8 1226.51 25.8 1225.8 25.8587C1225.04 27.4444 1224.28 29.03 1223.4 30.8506C1227.21 30.7331 1230.91 30.6744 1234.61 30.6157ZM1236.49 18.2829C1237.37 19.986 1236.2 22.3938 1238.9 23.7446C1239.66 21.2193 1237.72 19.8685 1236.49 18.2829ZM1249.41 19.6924C1249.17 19.9273 1249 20.1622 1248.76 20.4558C1249 20.2209 1249.23 19.986 1249.41 19.6924ZM1257.39 18.4003L1256.39 18.5765L1257.16 18.8702L1257.39 18.4003ZM1274.42 16.5798C1274.01 16.8147 1273.54 17.0496 1273.13 17.2845C1272.89 17.4607 1272.66 17.6956 1272.42 17.8718C1272.66 17.6956 1272.95 17.5194 1273.19 17.3433C1273.6 17.1083 1274.01 16.8147 1274.42 16.5798ZM1303.78 22.2764C1305.19 22.2176 1306.6 22.2176 1308.01 22.1589C1306.48 19.34 1305.13 20.9844 1303.78 22.2764ZM1349.52 25.4477C1349.4 25.5651 1349.63 25.8587 1349.69 26.0349C1349.93 25.9175 1350.22 25.8587 1350.46 25.7413C1350.4 25.5064 1350.34 25.2715 1350.22 25.0953C1349.99 25.2127 1349.63 25.2715 1349.52 25.4477ZM1325.09 21.2193C1325.85 20.8082 1326.68 20.3971 1327.44 19.9273C1326.79 20.1622 1326.15 20.3384 1325.5 20.632C1325.33 20.6907 1325.27 20.9844 1325.09 21.2193ZM1330.02 35.0202C1330.02 34.6092 1329.96 34.2568 1329.96 33.8457C1328.56 33.9044 1327.15 33.9044 1325.74 33.9632C1327.15 34.2568 1328.61 34.6679 1330.02 35.0202ZM1356.68 32.4362C1353.74 32.1426 1351.57 33.2584 1349.28 34.4917C1349.58 34.9028 1349.87 35.6075 1350.16 35.6075C1352.75 35.5488 1355.86 36.1948 1356.68 32.4362ZM1379.81 33.0822C1374.12 36.6059 1369.07 31.6728 1363.61 32.0839C1368.89 34.1393 1374 36.8408 1379.81 33.0822ZM1383.4 25.5064C1382.16 24.6255 1381.28 23.6271 1380.87 23.7446C1379.64 24.0382 1378.11 24.6255 1377.58 25.5064C1376.7 26.9746 1378.23 27.6206 1379.58 27.3269C1380.75 27.1508 1381.81 26.3286 1383.4 25.5064ZM1392.44 32.6124L1391.56 32.4362L1391.73 32.9061L1392.44 32.6124ZM1450.33 28.6189C1449.86 28.9126 1448.39 29.5586 1448.45 29.8522C1448.75 30.9093 1449.27 32.2013 1450.27 32.7299C1451.56 33.4346 1451.56 32.1426 1451.92 31.3791C1452.56 30.0871 1452.86 29.0888 1450.33 28.6189ZM1465.3 23.862C1465.19 23.6858 1464.83 23.6271 1464.6 23.5096C1464.54 23.7446 1464.31 23.9795 1464.42 24.1556C1464.54 24.3318 1464.89 24.4493 1465.13 24.5667C1465.19 24.3318 1465.42 24.0382 1465.3 23.862ZM1467.89 13.9958C1468.59 13.7609 1469.24 13.4672 1469.94 13.2323C1469.41 13.291 1468.94 13.4085 1468.42 13.526C1468.18 13.5847 1468.06 13.8196 1467.89 13.9958ZM1485.97 31.5553C1481.98 30.557 1478.1 29.1475 1474.05 28.6189C1468.47 27.9142 1468.42 30.4395 1471 33.787L1471.06 33.7282C1470.29 30.968 1471.06 29.3237 1474.76 30.0871C1478.46 30.8506 1481.98 32.5537 1485.97 31.5553ZM1493.6 28.7364C1493.37 28.384 1493.19 27.9729 1492.9 27.6206C1492.84 27.5618 1492.31 27.7968 1492.02 27.9142C1492.2 28.1491 1492.31 28.5015 1492.55 28.6189C1492.84 28.7951 1493.25 28.7364 1493.6 28.7364ZM1500.94 21.8653C1499.54 21.924 1498.18 21.9827 1496.78 21.9827C1498.24 23.5684 1499.65 24.0382 1500.94 21.8653ZM1539.23 13.937C1538.52 13.937 1537.88 14.172 1537.17 14.2894C1537.35 14.4069 1537.47 14.7005 1537.64 14.7005C1538.35 14.7005 1539.11 14.818 1539.76 14.6418C1540.58 14.3481 1540.4 13.937 1539.23 13.937ZM1553.2 21.6891C1552.38 21.9827 1551.62 22.3351 1550.79 22.6287C1550.44 22.8636 1550.09 23.1573 1549.68 23.3922C1550.09 23.1573 1550.44 22.9224 1550.85 22.6875C1551.67 22.3351 1552.44 22.0415 1553.2 21.6891ZM1574.63 22.3351C1573.93 21.8065 1573.05 20.8082 1571.93 20.4558C1570.76 20.1034 1570.05 21.0431 1570.52 21.9827C1570.87 22.6875 1571.76 23.3922 1572.58 23.8033C1573.58 24.2731 1574.46 23.9795 1574.63 22.3351ZM1591.07 20.8082C1590.6 19.5162 1589.55 18.8114 1588.08 19.8098C1587.14 20.3971 1584.79 20.1034 1585.49 21.6891C1585.85 22.5113 1587.67 23.0986 1588.9 23.2747C1590.78 23.5684 1591.07 22.2176 1591.07 20.8082ZM1601.11 25.6238C1600.82 25.5064 1600.53 25.3302 1600.23 25.2127C1600.12 25.4477 1599.82 25.8 1599.88 25.9175C1600 26.0937 1600.41 26.2111 1600.7 26.3286C1600.88 26.0937 1601 25.8587 1601.11 25.6238ZM1610.16 27.2095C1609.22 27.1508 1608.34 27.1508 1607.4 27.092C1608.34 27.1508 1609.1 29.03 1610.16 27.2095ZM1665.64 31.7902C1665.23 31.3791 1664.7 31.0268 1664.23 30.6744C1664.06 30.9093 1663.7 31.3204 1663.76 31.3204C1664.17 31.7315 1664.7 32.0251 1665.17 32.3775C1665.35 32.2013 1665.7 31.849 1665.64 31.7902ZM1671.98 16.2862C1662.12 13.6434 1653.02 5.89137 1641.8 13.1736C1645.62 13.7021 1652.43 10.4721 1650.43 18.5178C1650.32 19.0464 1653.14 20.1622 1654.6 20.9844C1658.13 13.0561 1666.46 18.5765 1671.98 16.2862ZM1678.91 15.1116C1681.32 16.5798 1679.79 18.3416 1678.79 19.9273C1680.2 19.9273 1681.61 19.8685 1683.02 19.8685C1683.61 17.9305 1685.37 16.9322 1687.19 16.0512C1682.02 10.4721 1677.09 12.0578 1672.28 16.2862C1674.51 15.8163 1676.5 13.5847 1678.91 15.1116ZM1691.65 31.7315C1687.78 31.7902 1683.9 31.9077 1680.03 31.9664C1683.9 33.3759 1687.78 32.2601 1691.65 31.7315ZM1697.82 19.6336C1697.41 18.5765 1696.58 16.8147 1695.06 17.9893C1691.42 20.9256 1687.25 19.6924 1683.2 19.8098C1686.96 22.9811 1691.59 21.1605 1695.88 21.3955C1697.88 21.5716 1698.4 21.2193 1697.82 19.6336ZM1698.7 10.8245C1698.11 10.8832 1697.58 10.8832 1697 10.9419C1697.23 11.0594 1697.47 11.2356 1697.7 11.2943C1697.99 11.353 1698.29 11.2943 1698.58 11.2356C1698.64 11.2356 1698.7 10.9419 1698.7 10.8245ZM1710.5 22.2764C1709.15 20.5145 1707.8 18.7527 1706.45 16.9322C1705.92 19.34 1703.16 22.1002 1707.39 22.6875C1708.39 22.8049 1709.44 22.3938 1710.5 22.2764ZM1747.49 22.1002C1747.84 18.4003 1745.49 17.2258 1741.44 17.8718C1745.38 17.3433 1743.38 22.9224 1747.49 22.1002ZM1758.82 18.7527C1758.06 18.2829 1757.12 17.3433 1756.65 17.4607C1755.83 17.7543 1754.95 18.6353 1754.71 19.3987C1754.36 20.5145 1755.24 20.9256 1756.83 20.4558C1757.36 20.0447 1758.12 19.3987 1758.82 18.7527ZM1764.23 25.7413C1763.87 25.4477 1763.46 25.154 1763.05 24.8604C1762.87 25.0953 1762.7 25.2715 1762.52 25.5064C1762.93 25.8 1763.29 26.0349 1763.7 26.3286C1763.93 26.1524 1764.28 25.8 1764.23 25.7413ZM1771.86 18.694C1771.74 18.4591 1771.62 18.048 1771.51 17.9893C1771.04 17.9893 1770.57 18.1067 1770.04 18.1654C1770.39 18.4591 1770.68 18.7527 1771.09 18.9876C1771.27 19.1051 1771.62 18.8114 1771.86 18.694Z" fill="black"/>
<path d="M975.91 6.77229C975.851 6.71356 975.851 6.71356 975.792 6.65483L975.91 6.77229Z" fill="black"/>
<path d="M1490.02 12.7038C1489.96 12.645 1489.91 12.645 1489.85 12.645L1490.02 12.7038Z" fill="black"/>
<path d="M1503.65 11.8816C1505.29 11.353 1504.23 9.47375 1503.06 9.00393C1498.07 7.12465 1494.49 10.0023 1490.73 12.0578C1490.43 12.234 1490.32 12.4689 1490.08 12.7038C1494.78 15.6989 1499.3 13.3498 1503.65 11.8816Z" fill="black"/>
<path d="M1329.38 12.4101C1332.96 11.7054 1337.66 12.1752 1337.95 5.53901C1333.66 7.6532 1329.2 6.88974 1327.5 10.707C1327.32 11.0594 1328.85 12.4689 1329.38 12.4101Z" fill="black"/>
<path d="M792.071 28.9713C795.066 28.6777 792.893 25.4477 794.126 23.862C792.012 23.9207 789.899 23.9795 787.726 24.0382C788.666 26.0937 788.666 29.3237 792.071 28.9713Z" fill="black"/>
<path d="M787.726 24.0382C787.726 24.0382 787.726 23.9795 787.667 23.9795C789.781 22.5113 791.895 22.4525 794.126 23.862C794.126 23.862 794.126 23.9207 794.067 23.9207C794.126 23.9207 794.185 23.9207 794.244 23.9207L794.185 23.8033C799.939 24.6255 800.644 20.5733 802.346 17.4607C797.884 16.8734 797.708 8.47539 793.011 11.5879C785.377 16.5798 772.401 14.4069 768.82 24.7429C775.631 28.5602 781.091 18.2829 787.726 23.9207L787.55 24.0382C787.609 24.0382 787.667 24.0382 787.726 24.0382Z" fill="black"/>
<path d="M1001.92 11.9403H1001.98C1001.98 11.8816 1002.04 11.8816 1002.04 11.8229L1001.92 11.9403Z" fill="black"/>
<path d="M1489.91 12.645C1489.91 12.7038 1489.85 12.7038 1489.85 12.7625C1489.91 12.7625 1489.96 12.7625 1490.02 12.7625L1489.91 12.645Z" fill="black"/>
<path d="M1489.79 12.7625C1487.15 12.645 1484.03 11.353 1482.74 14.818C1482.57 15.2291 1483.09 16.1687 1483.51 16.2862C1487.26 17.402 1488.44 14.8767 1489.79 12.7625Z" fill="black"/>
<path d="M811.212 15.8751C811.389 14.0545 810.684 13.3498 809.392 13.7021C808.511 13.937 807.513 14.7005 807.22 15.464C807.044 15.9925 807.924 16.8147 808.335 17.5194C809.451 16.8734 810.508 16.2862 811.212 15.8751Z" fill="black"/>
<path d="M790.897 37.1932C790.016 37.2519 788.724 38.7788 788.607 39.7185C788.372 42.0676 790.486 41.4803 792.071 41.3041C792.423 40.9517 792.717 40.6581 793.069 40.3057C792.717 39.0725 793.245 37.0757 790.897 37.1932Z" fill="black"/>
<path d="M773.987 42.831C774.456 43.2421 776.159 43.3596 776.57 43.0072C777.803 41.8326 776.629 40.8343 775.807 39.9534C775.337 39.601 774.926 39.1899 774.456 38.8375C773.869 40.1295 772.46 41.4803 773.987 42.831Z" fill="black"/>
<path d="M768.174 35.079C768.702 35.3139 769.524 35.9599 769.759 35.7837C770.464 35.3726 770.933 34.6679 771.462 34.1393C770.933 33.8457 770.405 33.6108 769.524 33.141C769.055 33.787 768.644 34.433 768.174 35.079Z" fill="black"/>
<path d="M1358.32 11.2943C1359.97 10.1198 1359.5 8.76902 1357.97 7.59447C1357.68 7.82938 1357.33 8.06429 1357.03 8.35793C1356.5 9.3563 1356.03 10.3547 1355.51 11.353C1356.5 11.353 1357.74 11.7054 1358.32 11.2943Z" fill="black"/>
<path d="M1269.55 1.48681C1269.25 0.958257 1269.14 0.194799 1268.72 0.0186164C1268.25 -0.0988387 1267.55 0.370982 1266.96 0.547164C1267.2 1.01699 1267.32 1.83917 1267.67 1.8979C1268.25 2.07408 1268.9 1.66299 1269.55 1.48681Z" fill="black"/>
<path d="M940.504 9.3563C941.855 9.23884 943.146 8.59284 946.611 7.35956C941.972 6.06756 940.974 5.48028 940.387 5.71519C939.623 6.00883 938.86 7.0072 938.86 7.71193C938.86 8.2992 939.976 9.41503 940.504 9.3563Z" fill="black"/>
<path d="M830.119 3.30736C830.53 2.95499 830.706 2.30899 830.941 1.78044C830.354 1.60426 829.766 1.42808 829.179 1.2519C829.003 1.78044 828.592 2.36772 828.651 2.83754C828.71 3.07245 829.943 3.48354 830.119 3.30736Z" fill="black"/>
<path d="M1378.64 6.18501C1378.64 5.83265 1377.88 5.42155 1377.47 5.01046C1376.88 5.3041 1376.06 5.53901 1375.82 6.00883C1375.65 6.30247 1376.12 7.24211 1376.47 7.35956C1377.58 7.71193 1378.64 7.35956 1378.64 6.18501Z" fill="black"/>
<path d="M859.594 17.2258C856.952 15.6402 856.658 18.4003 856.13 19.986C856.658 20.3971 857.245 20.8082 857.774 21.2193C858.889 19.986 862.001 18.694 859.594 17.2258Z" fill="black"/>
<path d="M1357.03 8.35793C1357.33 8.12302 1357.68 7.88811 1357.97 7.59447C1357.56 6.24374 1357.97 4.30573 1355.39 4.30573C1354.86 4.30573 1353.92 4.77555 1353.86 5.12791C1353.69 7.06592 1355.68 7.47702 1357.03 8.35793Z" fill="black"/>
<path d="M777.04 36.7233C774.633 35.2552 774.867 37.6043 774.456 38.8375C774.926 39.1899 775.337 39.601 775.807 39.9534C777.744 39.2486 778.743 37.663 777.04 36.7233Z" fill="black"/>
<path d="M1142.07 4.83428C1142.54 4.83428 1143.01 4.18827 1143.48 3.83591C1143.07 3.30736 1142.84 2.60263 1142.31 2.42645C1141.96 2.25026 1140.84 2.66136 1140.72 3.01372C1140.31 3.95336 1140.78 4.83428 1142.07 4.83428Z" fill="black"/>
<path d="M808.629 33.4346C807.455 33.2584 806.515 32.9648 805.576 33.0235C805.165 33.0822 804.812 33.787 804.46 34.1981C805.4 34.433 806.28 34.7853 807.22 34.8441C807.572 34.8441 807.924 34.0806 808.629 33.4346Z" fill="black"/>
<path d="M1366.96 5.24537C1366.66 4.77555 1366.31 4.247 1366.02 3.77718C1365.43 4.01209 1364.84 4.18827 1364.25 4.42318C1364.55 4.893 1364.72 5.71519 1365.14 5.83265C1365.66 5.9501 1366.37 5.48028 1366.96 5.24537Z" fill="black"/>
<path d="M1261.38 10.707C1261.62 11.0007 1261.8 11.353 1262.03 11.6467C1261.97 11.4705 1261.97 11.2943 1261.91 11.1769C1261.8 11.0007 1261.56 10.8245 1261.38 10.707Z" fill="black"/>
<path d="M863.704 11.999L862.823 11.6467L862.882 12.3514L863.704 11.999Z" fill="black"/>
<path d="M1000.34 10.061C1000.86 10.5896 1001.39 11.1181 1001.92 11.6467C1001.8 10.9419 1001.69 10.2372 1001.57 9.47376C1001.1 9.64994 1000.75 9.82612 1000.34 10.061Z" fill="black"/>
<path d="M1001.92 11.9403L1002.04 11.8229C1001.98 11.7641 1001.92 11.7054 1001.86 11.6467C1001.92 11.7054 1001.92 11.8229 1001.92 11.9403Z" fill="black"/>
<path d="M1041.03 66.322C1041.38 66.6744 1041.85 67.1442 1042.26 67.203C1042.67 67.203 1043.08 66.7331 1043.67 66.322C1042.67 66.0284 1042.14 65.7935 1041.49 65.676C1041.38 65.676 1040.97 66.2633 1041.03 66.322Z" fill="black"/>
<path d="M999.396 72.0773C1000.16 71.4901 1000.86 70.8441 1001.57 70.2568L1001.45 70.1393C1000.75 70.7853 1000.04 71.4313 999.396 72.0773Z" fill="black"/>
<path d="M999.396 72.1361V72.0773L998.809 72.5472L999.396 72.1361Z" fill="black"/>
<path d="M1087.94 8.7103C1088.35 8.35793 1088.76 7.94684 1089.11 7.59447C1087.76 7.24211 1087.47 7.6532 1087.94 8.7103Z" fill="black"/>
<path d="M819.198 10.6483C819.609 10.2959 820.02 9.88485 820.431 9.53248C819.022 9.12139 818.669 9.53248 819.198 10.6483Z" fill="black"/>
<path d="M1252.23 9.00393L1252.17 9.53248L1252.81 9.3563L1252.23 9.00393Z" fill="black"/>
<path d="M1005.97 11.4118C1006.27 11.6467 1006.56 11.8816 1006.85 12.1752C1007.32 11.1769 1007.03 10.9419 1005.97 11.4118Z" fill="black"/>
<path d="M782.324 32.8473L783.029 32.5537L782.383 32.2601L782.324 32.8473Z" fill="black"/>
<path d="M782.324 36.4297L782.911 36.4884L782.677 35.9599L782.324 36.4297Z" fill="black"/>
<path d="M847.264 28.3253C845.972 28.2079 844.269 28.4428 844.974 30.2046C845.267 30.8506 846.559 31.1442 846.911 31.3204C848.79 31.4379 849.612 30.7331 849.319 29.7935C849.143 29.1475 848.027 28.384 847.264 28.3253Z" fill="black"/>
</g>
<defs>
<clipPath id="clip0_159_338">
<rect width="1920" height="46.9821" fill="white" transform="translate(-1)"/>
</clipPath>
</defs>
</svg>
