<svg width="20" height="16" viewBox="0 0 20 16" fill="none" xmlns="http://www.w3.org/2000/svg">
<path d="M20 15.7714L18.5039 14.3238C18.3465 14.2476 18.2677 14.019 18.2677 13.8667V2.28571C18.2677 2.13333 18.3465 1.90476 18.5039 1.75238L20 0.0761893V0H14.6457L10.6299 9.82857L6.06299 0H0.551181V0.0761893L1.9685 1.98095C2.28346 2.28571 2.3622 2.74286 2.3622 3.12381V11.5048C2.44094 11.9619 2.3622 12.4952 2.12598 12.9524L0 15.7714V15.8476H5.66929V15.7714L3.54331 13.0286C3.30709 12.5714 3.22835 12.1143 3.30709 11.581V3.96191C3.38583 4.11429 3.46457 4.11429 3.54331 4.41905L8.89764 16H8.97638L14.1732 3.42857C14.0945 3.88571 14.0945 4.41905 14.0945 4.8V13.7905C14.0945 14.019 14.0157 14.1714 13.8583 14.3238L12.2835 15.7714V15.8476H20V15.7714Z" fill="#FFC977"/>
</svg>
